%TF.GenerationSoftware,KiCad,Pcbnew,7.0.1*%
%TF.CreationDate,2023-05-14T20:32:12+02:00*%
%TF.ProjectId,adr4520_vref,61647234-3532-4305-9f76-7265662e6b69,rev?*%
%TF.SameCoordinates,Original*%
%TF.FileFunction,Legend,Top*%
%TF.FilePolarity,Positive*%
%FSLAX46Y46*%
G04 Gerber Fmt 4.6, Leading zero omitted, Abs format (unit mm)*
G04 Created by KiCad (PCBNEW 7.0.1) date 2023-05-14 20:32:12*
%MOMM*%
%LPD*%
G01*
G04 APERTURE LIST*
%ADD10C,0.100000*%
%ADD11C,0.120000*%
%ADD12C,0.150000*%
G04 APERTURE END LIST*
D10*
X59242857Y-85763928D02*
X59600000Y-85763928D01*
X59171428Y-85978214D02*
X59421428Y-85228214D01*
X59421428Y-85228214D02*
X59671428Y-85978214D01*
X59921428Y-85978214D02*
X59921428Y-85228214D01*
X59921428Y-85228214D02*
X60099999Y-85228214D01*
X60099999Y-85228214D02*
X60207142Y-85263928D01*
X60207142Y-85263928D02*
X60278571Y-85335357D01*
X60278571Y-85335357D02*
X60314285Y-85406785D01*
X60314285Y-85406785D02*
X60349999Y-85549642D01*
X60349999Y-85549642D02*
X60349999Y-85656785D01*
X60349999Y-85656785D02*
X60314285Y-85799642D01*
X60314285Y-85799642D02*
X60278571Y-85871071D01*
X60278571Y-85871071D02*
X60207142Y-85942500D01*
X60207142Y-85942500D02*
X60099999Y-85978214D01*
X60099999Y-85978214D02*
X59921428Y-85978214D01*
X61099999Y-85978214D02*
X60849999Y-85621071D01*
X60671428Y-85978214D02*
X60671428Y-85228214D01*
X60671428Y-85228214D02*
X60957142Y-85228214D01*
X60957142Y-85228214D02*
X61028571Y-85263928D01*
X61028571Y-85263928D02*
X61064285Y-85299642D01*
X61064285Y-85299642D02*
X61099999Y-85371071D01*
X61099999Y-85371071D02*
X61099999Y-85478214D01*
X61099999Y-85478214D02*
X61064285Y-85549642D01*
X61064285Y-85549642D02*
X61028571Y-85585357D01*
X61028571Y-85585357D02*
X60957142Y-85621071D01*
X60957142Y-85621071D02*
X60671428Y-85621071D01*
X61742857Y-85478214D02*
X61742857Y-85978214D01*
X61564285Y-85192500D02*
X61385714Y-85728214D01*
X61385714Y-85728214D02*
X61849999Y-85728214D01*
X62492857Y-85228214D02*
X62135714Y-85228214D01*
X62135714Y-85228214D02*
X62100000Y-85585357D01*
X62100000Y-85585357D02*
X62135714Y-85549642D01*
X62135714Y-85549642D02*
X62207143Y-85513928D01*
X62207143Y-85513928D02*
X62385714Y-85513928D01*
X62385714Y-85513928D02*
X62457143Y-85549642D01*
X62457143Y-85549642D02*
X62492857Y-85585357D01*
X62492857Y-85585357D02*
X62528571Y-85656785D01*
X62528571Y-85656785D02*
X62528571Y-85835357D01*
X62528571Y-85835357D02*
X62492857Y-85906785D01*
X62492857Y-85906785D02*
X62457143Y-85942500D01*
X62457143Y-85942500D02*
X62385714Y-85978214D01*
X62385714Y-85978214D02*
X62207143Y-85978214D01*
X62207143Y-85978214D02*
X62135714Y-85942500D01*
X62135714Y-85942500D02*
X62100000Y-85906785D01*
X62814286Y-85299642D02*
X62850000Y-85263928D01*
X62850000Y-85263928D02*
X62921429Y-85228214D01*
X62921429Y-85228214D02*
X63100000Y-85228214D01*
X63100000Y-85228214D02*
X63171429Y-85263928D01*
X63171429Y-85263928D02*
X63207143Y-85299642D01*
X63207143Y-85299642D02*
X63242857Y-85371071D01*
X63242857Y-85371071D02*
X63242857Y-85442500D01*
X63242857Y-85442500D02*
X63207143Y-85549642D01*
X63207143Y-85549642D02*
X62778571Y-85978214D01*
X62778571Y-85978214D02*
X63242857Y-85978214D01*
X63707143Y-85228214D02*
X63778572Y-85228214D01*
X63778572Y-85228214D02*
X63850000Y-85263928D01*
X63850000Y-85263928D02*
X63885715Y-85299642D01*
X63885715Y-85299642D02*
X63921429Y-85371071D01*
X63921429Y-85371071D02*
X63957143Y-85513928D01*
X63957143Y-85513928D02*
X63957143Y-85692500D01*
X63957143Y-85692500D02*
X63921429Y-85835357D01*
X63921429Y-85835357D02*
X63885715Y-85906785D01*
X63885715Y-85906785D02*
X63850000Y-85942500D01*
X63850000Y-85942500D02*
X63778572Y-85978214D01*
X63778572Y-85978214D02*
X63707143Y-85978214D01*
X63707143Y-85978214D02*
X63635715Y-85942500D01*
X63635715Y-85942500D02*
X63600000Y-85906785D01*
X63600000Y-85906785D02*
X63564286Y-85835357D01*
X63564286Y-85835357D02*
X63528572Y-85692500D01*
X63528572Y-85692500D02*
X63528572Y-85513928D01*
X63528572Y-85513928D02*
X63564286Y-85371071D01*
X63564286Y-85371071D02*
X63600000Y-85299642D01*
X63600000Y-85299642D02*
X63635715Y-85263928D01*
X63635715Y-85263928D02*
X63707143Y-85228214D01*
X65278572Y-85978214D02*
X65028572Y-85621071D01*
X64850001Y-85978214D02*
X64850001Y-85228214D01*
X64850001Y-85228214D02*
X65135715Y-85228214D01*
X65135715Y-85228214D02*
X65207144Y-85263928D01*
X65207144Y-85263928D02*
X65242858Y-85299642D01*
X65242858Y-85299642D02*
X65278572Y-85371071D01*
X65278572Y-85371071D02*
X65278572Y-85478214D01*
X65278572Y-85478214D02*
X65242858Y-85549642D01*
X65242858Y-85549642D02*
X65207144Y-85585357D01*
X65207144Y-85585357D02*
X65135715Y-85621071D01*
X65135715Y-85621071D02*
X64850001Y-85621071D01*
X65885715Y-85942500D02*
X65814287Y-85978214D01*
X65814287Y-85978214D02*
X65671430Y-85978214D01*
X65671430Y-85978214D02*
X65600001Y-85942500D01*
X65600001Y-85942500D02*
X65564287Y-85871071D01*
X65564287Y-85871071D02*
X65564287Y-85585357D01*
X65564287Y-85585357D02*
X65600001Y-85513928D01*
X65600001Y-85513928D02*
X65671430Y-85478214D01*
X65671430Y-85478214D02*
X65814287Y-85478214D01*
X65814287Y-85478214D02*
X65885715Y-85513928D01*
X65885715Y-85513928D02*
X65921430Y-85585357D01*
X65921430Y-85585357D02*
X65921430Y-85656785D01*
X65921430Y-85656785D02*
X65564287Y-85728214D01*
X66135715Y-85478214D02*
X66421429Y-85478214D01*
X66242858Y-85978214D02*
X66242858Y-85335357D01*
X66242858Y-85335357D02*
X66278572Y-85263928D01*
X66278572Y-85263928D02*
X66350001Y-85228214D01*
X66350001Y-85228214D02*
X66421429Y-85228214D01*
X66957143Y-85942500D02*
X66885715Y-85978214D01*
X66885715Y-85978214D02*
X66742858Y-85978214D01*
X66742858Y-85978214D02*
X66671429Y-85942500D01*
X66671429Y-85942500D02*
X66635715Y-85871071D01*
X66635715Y-85871071D02*
X66635715Y-85585357D01*
X66635715Y-85585357D02*
X66671429Y-85513928D01*
X66671429Y-85513928D02*
X66742858Y-85478214D01*
X66742858Y-85478214D02*
X66885715Y-85478214D01*
X66885715Y-85478214D02*
X66957143Y-85513928D01*
X66957143Y-85513928D02*
X66992858Y-85585357D01*
X66992858Y-85585357D02*
X66992858Y-85656785D01*
X66992858Y-85656785D02*
X66635715Y-85728214D01*
X67314286Y-85978214D02*
X67314286Y-85478214D01*
X67314286Y-85621071D02*
X67350000Y-85549642D01*
X67350000Y-85549642D02*
X67385715Y-85513928D01*
X67385715Y-85513928D02*
X67457143Y-85478214D01*
X67457143Y-85478214D02*
X67528572Y-85478214D01*
X68064286Y-85942500D02*
X67992858Y-85978214D01*
X67992858Y-85978214D02*
X67850001Y-85978214D01*
X67850001Y-85978214D02*
X67778572Y-85942500D01*
X67778572Y-85942500D02*
X67742858Y-85871071D01*
X67742858Y-85871071D02*
X67742858Y-85585357D01*
X67742858Y-85585357D02*
X67778572Y-85513928D01*
X67778572Y-85513928D02*
X67850001Y-85478214D01*
X67850001Y-85478214D02*
X67992858Y-85478214D01*
X67992858Y-85478214D02*
X68064286Y-85513928D01*
X68064286Y-85513928D02*
X68100001Y-85585357D01*
X68100001Y-85585357D02*
X68100001Y-85656785D01*
X68100001Y-85656785D02*
X67742858Y-85728214D01*
X68421429Y-85478214D02*
X68421429Y-85978214D01*
X68421429Y-85549642D02*
X68457143Y-85513928D01*
X68457143Y-85513928D02*
X68528572Y-85478214D01*
X68528572Y-85478214D02*
X68635715Y-85478214D01*
X68635715Y-85478214D02*
X68707143Y-85513928D01*
X68707143Y-85513928D02*
X68742858Y-85585357D01*
X68742858Y-85585357D02*
X68742858Y-85978214D01*
X69421429Y-85942500D02*
X69350000Y-85978214D01*
X69350000Y-85978214D02*
X69207143Y-85978214D01*
X69207143Y-85978214D02*
X69135714Y-85942500D01*
X69135714Y-85942500D02*
X69100000Y-85906785D01*
X69100000Y-85906785D02*
X69064286Y-85835357D01*
X69064286Y-85835357D02*
X69064286Y-85621071D01*
X69064286Y-85621071D02*
X69100000Y-85549642D01*
X69100000Y-85549642D02*
X69135714Y-85513928D01*
X69135714Y-85513928D02*
X69207143Y-85478214D01*
X69207143Y-85478214D02*
X69350000Y-85478214D01*
X69350000Y-85478214D02*
X69421429Y-85513928D01*
X70028571Y-85942500D02*
X69957143Y-85978214D01*
X69957143Y-85978214D02*
X69814286Y-85978214D01*
X69814286Y-85978214D02*
X69742857Y-85942500D01*
X69742857Y-85942500D02*
X69707143Y-85871071D01*
X69707143Y-85871071D02*
X69707143Y-85585357D01*
X69707143Y-85585357D02*
X69742857Y-85513928D01*
X69742857Y-85513928D02*
X69814286Y-85478214D01*
X69814286Y-85478214D02*
X69957143Y-85478214D01*
X69957143Y-85478214D02*
X70028571Y-85513928D01*
X70028571Y-85513928D02*
X70064286Y-85585357D01*
X70064286Y-85585357D02*
X70064286Y-85656785D01*
X70064286Y-85656785D02*
X69707143Y-85728214D01*
X59171428Y-86443214D02*
X59421428Y-87193214D01*
X59421428Y-87193214D02*
X59671428Y-86443214D01*
X60314285Y-87193214D02*
X59885714Y-87193214D01*
X60099999Y-87193214D02*
X60099999Y-86443214D01*
X60099999Y-86443214D02*
X60028571Y-86550357D01*
X60028571Y-86550357D02*
X59957142Y-86621785D01*
X59957142Y-86621785D02*
X59885714Y-86657500D01*
X60635714Y-87121785D02*
X60671428Y-87157500D01*
X60671428Y-87157500D02*
X60635714Y-87193214D01*
X60635714Y-87193214D02*
X60600000Y-87157500D01*
X60600000Y-87157500D02*
X60635714Y-87121785D01*
X60635714Y-87121785D02*
X60635714Y-87193214D01*
X61135714Y-86443214D02*
X61207143Y-86443214D01*
X61207143Y-86443214D02*
X61278571Y-86478928D01*
X61278571Y-86478928D02*
X61314286Y-86514642D01*
X61314286Y-86514642D02*
X61350000Y-86586071D01*
X61350000Y-86586071D02*
X61385714Y-86728928D01*
X61385714Y-86728928D02*
X61385714Y-86907500D01*
X61385714Y-86907500D02*
X61350000Y-87050357D01*
X61350000Y-87050357D02*
X61314286Y-87121785D01*
X61314286Y-87121785D02*
X61278571Y-87157500D01*
X61278571Y-87157500D02*
X61207143Y-87193214D01*
X61207143Y-87193214D02*
X61135714Y-87193214D01*
X61135714Y-87193214D02*
X61064286Y-87157500D01*
X61064286Y-87157500D02*
X61028571Y-87121785D01*
X61028571Y-87121785D02*
X60992857Y-87050357D01*
X60992857Y-87050357D02*
X60957143Y-86907500D01*
X60957143Y-86907500D02*
X60957143Y-86728928D01*
X60957143Y-86728928D02*
X60992857Y-86586071D01*
X60992857Y-86586071D02*
X61028571Y-86514642D01*
X61028571Y-86514642D02*
X61064286Y-86478928D01*
X61064286Y-86478928D02*
X61135714Y-86443214D01*
X59207142Y-87908214D02*
X59385714Y-88408214D01*
X59385714Y-88408214D02*
X59564285Y-87908214D01*
X59957143Y-88408214D02*
X59885714Y-88372500D01*
X59885714Y-88372500D02*
X59850000Y-88336785D01*
X59850000Y-88336785D02*
X59814286Y-88265357D01*
X59814286Y-88265357D02*
X59814286Y-88051071D01*
X59814286Y-88051071D02*
X59850000Y-87979642D01*
X59850000Y-87979642D02*
X59885714Y-87943928D01*
X59885714Y-87943928D02*
X59957143Y-87908214D01*
X59957143Y-87908214D02*
X60064286Y-87908214D01*
X60064286Y-87908214D02*
X60135714Y-87943928D01*
X60135714Y-87943928D02*
X60171429Y-87979642D01*
X60171429Y-87979642D02*
X60207143Y-88051071D01*
X60207143Y-88051071D02*
X60207143Y-88265357D01*
X60207143Y-88265357D02*
X60171429Y-88336785D01*
X60171429Y-88336785D02*
X60135714Y-88372500D01*
X60135714Y-88372500D02*
X60064286Y-88408214D01*
X60064286Y-88408214D02*
X59957143Y-88408214D01*
X60850000Y-87908214D02*
X60850000Y-88515357D01*
X60850000Y-88515357D02*
X60814285Y-88586785D01*
X60814285Y-88586785D02*
X60778571Y-88622500D01*
X60778571Y-88622500D02*
X60707142Y-88658214D01*
X60707142Y-88658214D02*
X60600000Y-88658214D01*
X60600000Y-88658214D02*
X60528571Y-88622500D01*
X60850000Y-88372500D02*
X60778571Y-88408214D01*
X60778571Y-88408214D02*
X60635714Y-88408214D01*
X60635714Y-88408214D02*
X60564285Y-88372500D01*
X60564285Y-88372500D02*
X60528571Y-88336785D01*
X60528571Y-88336785D02*
X60492857Y-88265357D01*
X60492857Y-88265357D02*
X60492857Y-88051071D01*
X60492857Y-88051071D02*
X60528571Y-87979642D01*
X60528571Y-87979642D02*
X60564285Y-87943928D01*
X60564285Y-87943928D02*
X60635714Y-87908214D01*
X60635714Y-87908214D02*
X60778571Y-87908214D01*
X60778571Y-87908214D02*
X60850000Y-87943928D01*
X61492856Y-88372500D02*
X61421428Y-88408214D01*
X61421428Y-88408214D02*
X61278571Y-88408214D01*
X61278571Y-88408214D02*
X61207142Y-88372500D01*
X61207142Y-88372500D02*
X61171428Y-88301071D01*
X61171428Y-88301071D02*
X61171428Y-88015357D01*
X61171428Y-88015357D02*
X61207142Y-87943928D01*
X61207142Y-87943928D02*
X61278571Y-87908214D01*
X61278571Y-87908214D02*
X61421428Y-87908214D01*
X61421428Y-87908214D02*
X61492856Y-87943928D01*
X61492856Y-87943928D02*
X61528571Y-88015357D01*
X61528571Y-88015357D02*
X61528571Y-88086785D01*
X61528571Y-88086785D02*
X61171428Y-88158214D01*
X61957142Y-88408214D02*
X61885713Y-88372500D01*
X61885713Y-88372500D02*
X61849999Y-88301071D01*
X61849999Y-88301071D02*
X61849999Y-87658214D01*
X62564285Y-88372500D02*
X62492856Y-88408214D01*
X62492856Y-88408214D02*
X62349999Y-88408214D01*
X62349999Y-88408214D02*
X62278570Y-88372500D01*
X62278570Y-88372500D02*
X62242856Y-88336785D01*
X62242856Y-88336785D02*
X62207142Y-88265357D01*
X62207142Y-88265357D02*
X62207142Y-88051071D01*
X62207142Y-88051071D02*
X62242856Y-87979642D01*
X62242856Y-87979642D02*
X62278570Y-87943928D01*
X62278570Y-87943928D02*
X62349999Y-87908214D01*
X62349999Y-87908214D02*
X62492856Y-87908214D01*
X62492856Y-87908214D02*
X62564285Y-87943928D01*
X62885713Y-88408214D02*
X62885713Y-87658214D01*
X63207142Y-88408214D02*
X63207142Y-88015357D01*
X63207142Y-88015357D02*
X63171427Y-87943928D01*
X63171427Y-87943928D02*
X63099999Y-87908214D01*
X63099999Y-87908214D02*
X62992856Y-87908214D01*
X62992856Y-87908214D02*
X62921427Y-87943928D01*
X62921427Y-87943928D02*
X62885713Y-87979642D01*
X63564284Y-88408214D02*
X63564284Y-87908214D01*
X63564284Y-88051071D02*
X63599998Y-87979642D01*
X63599998Y-87979642D02*
X63635713Y-87943928D01*
X63635713Y-87943928D02*
X63707141Y-87908214D01*
X63707141Y-87908214D02*
X63778570Y-87908214D01*
X64492856Y-88051071D02*
X64457141Y-88015357D01*
X64457141Y-88015357D02*
X64385713Y-87979642D01*
X64385713Y-87979642D02*
X64314284Y-87979642D01*
X64314284Y-87979642D02*
X64242856Y-88015357D01*
X64242856Y-88015357D02*
X64207141Y-88051071D01*
X64207141Y-88051071D02*
X64171427Y-88122500D01*
X64171427Y-88122500D02*
X64171427Y-88193928D01*
X64171427Y-88193928D02*
X64207141Y-88265357D01*
X64207141Y-88265357D02*
X64242856Y-88301071D01*
X64242856Y-88301071D02*
X64314284Y-88336785D01*
X64314284Y-88336785D02*
X64385713Y-88336785D01*
X64385713Y-88336785D02*
X64457141Y-88301071D01*
X64457141Y-88301071D02*
X64492856Y-88265357D01*
X64492856Y-87979642D02*
X64492856Y-88265357D01*
X64492856Y-88265357D02*
X64528570Y-88301071D01*
X64528570Y-88301071D02*
X64564284Y-88301071D01*
X64564284Y-88301071D02*
X64635713Y-88265357D01*
X64635713Y-88265357D02*
X64671427Y-88193928D01*
X64671427Y-88193928D02*
X64671427Y-88015357D01*
X64671427Y-88015357D02*
X64599999Y-87908214D01*
X64599999Y-87908214D02*
X64492856Y-87836785D01*
X64492856Y-87836785D02*
X64349999Y-87801071D01*
X64349999Y-87801071D02*
X64207141Y-87836785D01*
X64207141Y-87836785D02*
X64099999Y-87908214D01*
X64099999Y-87908214D02*
X64028570Y-88015357D01*
X64028570Y-88015357D02*
X63992856Y-88158214D01*
X63992856Y-88158214D02*
X64028570Y-88301071D01*
X64028570Y-88301071D02*
X64099999Y-88408214D01*
X64099999Y-88408214D02*
X64207141Y-88479642D01*
X64207141Y-88479642D02*
X64349999Y-88515357D01*
X64349999Y-88515357D02*
X64492856Y-88479642D01*
X64492856Y-88479642D02*
X64599999Y-88408214D01*
X64921427Y-87908214D02*
X65099999Y-88408214D01*
X65099999Y-88408214D02*
X65278570Y-87908214D01*
X65671428Y-88408214D02*
X65599999Y-88372500D01*
X65599999Y-88372500D02*
X65564285Y-88336785D01*
X65564285Y-88336785D02*
X65528571Y-88265357D01*
X65528571Y-88265357D02*
X65528571Y-88051071D01*
X65528571Y-88051071D02*
X65564285Y-87979642D01*
X65564285Y-87979642D02*
X65599999Y-87943928D01*
X65599999Y-87943928D02*
X65671428Y-87908214D01*
X65671428Y-87908214D02*
X65778571Y-87908214D01*
X65778571Y-87908214D02*
X65849999Y-87943928D01*
X65849999Y-87943928D02*
X65885714Y-87979642D01*
X65885714Y-87979642D02*
X65921428Y-88051071D01*
X65921428Y-88051071D02*
X65921428Y-88265357D01*
X65921428Y-88265357D02*
X65885714Y-88336785D01*
X65885714Y-88336785D02*
X65849999Y-88372500D01*
X65849999Y-88372500D02*
X65778571Y-88408214D01*
X65778571Y-88408214D02*
X65671428Y-88408214D01*
X66564285Y-87908214D02*
X66564285Y-88515357D01*
X66564285Y-88515357D02*
X66528570Y-88586785D01*
X66528570Y-88586785D02*
X66492856Y-88622500D01*
X66492856Y-88622500D02*
X66421427Y-88658214D01*
X66421427Y-88658214D02*
X66314285Y-88658214D01*
X66314285Y-88658214D02*
X66242856Y-88622500D01*
X66564285Y-88372500D02*
X66492856Y-88408214D01*
X66492856Y-88408214D02*
X66349999Y-88408214D01*
X66349999Y-88408214D02*
X66278570Y-88372500D01*
X66278570Y-88372500D02*
X66242856Y-88336785D01*
X66242856Y-88336785D02*
X66207142Y-88265357D01*
X66207142Y-88265357D02*
X66207142Y-88051071D01*
X66207142Y-88051071D02*
X66242856Y-87979642D01*
X66242856Y-87979642D02*
X66278570Y-87943928D01*
X66278570Y-87943928D02*
X66349999Y-87908214D01*
X66349999Y-87908214D02*
X66492856Y-87908214D01*
X66492856Y-87908214D02*
X66564285Y-87943928D01*
X67207141Y-88372500D02*
X67135713Y-88408214D01*
X67135713Y-88408214D02*
X66992856Y-88408214D01*
X66992856Y-88408214D02*
X66921427Y-88372500D01*
X66921427Y-88372500D02*
X66885713Y-88301071D01*
X66885713Y-88301071D02*
X66885713Y-88015357D01*
X66885713Y-88015357D02*
X66921427Y-87943928D01*
X66921427Y-87943928D02*
X66992856Y-87908214D01*
X66992856Y-87908214D02*
X67135713Y-87908214D01*
X67135713Y-87908214D02*
X67207141Y-87943928D01*
X67207141Y-87943928D02*
X67242856Y-88015357D01*
X67242856Y-88015357D02*
X67242856Y-88086785D01*
X67242856Y-88086785D02*
X66885713Y-88158214D01*
X67671427Y-88408214D02*
X67599998Y-88372500D01*
X67599998Y-88372500D02*
X67564284Y-88301071D01*
X67564284Y-88301071D02*
X67564284Y-87658214D01*
X67957141Y-88336785D02*
X67992855Y-88372500D01*
X67992855Y-88372500D02*
X67957141Y-88408214D01*
X67957141Y-88408214D02*
X67921427Y-88372500D01*
X67921427Y-88372500D02*
X67957141Y-88336785D01*
X67957141Y-88336785D02*
X67957141Y-88408214D01*
X68635713Y-88372500D02*
X68564284Y-88408214D01*
X68564284Y-88408214D02*
X68421427Y-88408214D01*
X68421427Y-88408214D02*
X68349998Y-88372500D01*
X68349998Y-88372500D02*
X68314284Y-88336785D01*
X68314284Y-88336785D02*
X68278570Y-88265357D01*
X68278570Y-88265357D02*
X68278570Y-88051071D01*
X68278570Y-88051071D02*
X68314284Y-87979642D01*
X68314284Y-87979642D02*
X68349998Y-87943928D01*
X68349998Y-87943928D02*
X68421427Y-87908214D01*
X68421427Y-87908214D02*
X68564284Y-87908214D01*
X68564284Y-87908214D02*
X68635713Y-87943928D01*
X68885712Y-88408214D02*
X69278570Y-87908214D01*
X68885712Y-87908214D02*
X69278570Y-88408214D01*
X62142857Y-83693928D02*
X62500000Y-83693928D01*
X62071428Y-83908214D02*
X62321428Y-83158214D01*
X62321428Y-83158214D02*
X62571428Y-83908214D01*
X62821428Y-83908214D02*
X62821428Y-83158214D01*
X62821428Y-83158214D02*
X62999999Y-83158214D01*
X62999999Y-83158214D02*
X63107142Y-83193928D01*
X63107142Y-83193928D02*
X63178571Y-83265357D01*
X63178571Y-83265357D02*
X63214285Y-83336785D01*
X63214285Y-83336785D02*
X63249999Y-83479642D01*
X63249999Y-83479642D02*
X63249999Y-83586785D01*
X63249999Y-83586785D02*
X63214285Y-83729642D01*
X63214285Y-83729642D02*
X63178571Y-83801071D01*
X63178571Y-83801071D02*
X63107142Y-83872500D01*
X63107142Y-83872500D02*
X62999999Y-83908214D01*
X62999999Y-83908214D02*
X62821428Y-83908214D01*
X63999999Y-83908214D02*
X63749999Y-83551071D01*
X63571428Y-83908214D02*
X63571428Y-83158214D01*
X63571428Y-83158214D02*
X63857142Y-83158214D01*
X63857142Y-83158214D02*
X63928571Y-83193928D01*
X63928571Y-83193928D02*
X63964285Y-83229642D01*
X63964285Y-83229642D02*
X63999999Y-83301071D01*
X63999999Y-83301071D02*
X63999999Y-83408214D01*
X63999999Y-83408214D02*
X63964285Y-83479642D01*
X63964285Y-83479642D02*
X63928571Y-83515357D01*
X63928571Y-83515357D02*
X63857142Y-83551071D01*
X63857142Y-83551071D02*
X63571428Y-83551071D01*
X64642857Y-83408214D02*
X64642857Y-83908214D01*
X64464285Y-83122500D02*
X64285714Y-83658214D01*
X64285714Y-83658214D02*
X64749999Y-83658214D01*
X65392857Y-83158214D02*
X65035714Y-83158214D01*
X65035714Y-83158214D02*
X65000000Y-83515357D01*
X65000000Y-83515357D02*
X65035714Y-83479642D01*
X65035714Y-83479642D02*
X65107143Y-83443928D01*
X65107143Y-83443928D02*
X65285714Y-83443928D01*
X65285714Y-83443928D02*
X65357143Y-83479642D01*
X65357143Y-83479642D02*
X65392857Y-83515357D01*
X65392857Y-83515357D02*
X65428571Y-83586785D01*
X65428571Y-83586785D02*
X65428571Y-83765357D01*
X65428571Y-83765357D02*
X65392857Y-83836785D01*
X65392857Y-83836785D02*
X65357143Y-83872500D01*
X65357143Y-83872500D02*
X65285714Y-83908214D01*
X65285714Y-83908214D02*
X65107143Y-83908214D01*
X65107143Y-83908214D02*
X65035714Y-83872500D01*
X65035714Y-83872500D02*
X65000000Y-83836785D01*
X65714286Y-83229642D02*
X65750000Y-83193928D01*
X65750000Y-83193928D02*
X65821429Y-83158214D01*
X65821429Y-83158214D02*
X66000000Y-83158214D01*
X66000000Y-83158214D02*
X66071429Y-83193928D01*
X66071429Y-83193928D02*
X66107143Y-83229642D01*
X66107143Y-83229642D02*
X66142857Y-83301071D01*
X66142857Y-83301071D02*
X66142857Y-83372500D01*
X66142857Y-83372500D02*
X66107143Y-83479642D01*
X66107143Y-83479642D02*
X65678571Y-83908214D01*
X65678571Y-83908214D02*
X66142857Y-83908214D01*
X66607143Y-83158214D02*
X66678572Y-83158214D01*
X66678572Y-83158214D02*
X66750000Y-83193928D01*
X66750000Y-83193928D02*
X66785715Y-83229642D01*
X66785715Y-83229642D02*
X66821429Y-83301071D01*
X66821429Y-83301071D02*
X66857143Y-83443928D01*
X66857143Y-83443928D02*
X66857143Y-83622500D01*
X66857143Y-83622500D02*
X66821429Y-83765357D01*
X66821429Y-83765357D02*
X66785715Y-83836785D01*
X66785715Y-83836785D02*
X66750000Y-83872500D01*
X66750000Y-83872500D02*
X66678572Y-83908214D01*
X66678572Y-83908214D02*
X66607143Y-83908214D01*
X66607143Y-83908214D02*
X66535715Y-83872500D01*
X66535715Y-83872500D02*
X66500000Y-83836785D01*
X66500000Y-83836785D02*
X66464286Y-83765357D01*
X66464286Y-83765357D02*
X66428572Y-83622500D01*
X66428572Y-83622500D02*
X66428572Y-83443928D01*
X66428572Y-83443928D02*
X66464286Y-83301071D01*
X66464286Y-83301071D02*
X66500000Y-83229642D01*
X66500000Y-83229642D02*
X66535715Y-83193928D01*
X66535715Y-83193928D02*
X66607143Y-83158214D01*
X72607142Y-77158214D02*
X73071428Y-77158214D01*
X73071428Y-77158214D02*
X72821428Y-77443928D01*
X72821428Y-77443928D02*
X72928571Y-77443928D01*
X72928571Y-77443928D02*
X73000000Y-77479642D01*
X73000000Y-77479642D02*
X73035714Y-77515357D01*
X73035714Y-77515357D02*
X73071428Y-77586785D01*
X73071428Y-77586785D02*
X73071428Y-77765357D01*
X73071428Y-77765357D02*
X73035714Y-77836785D01*
X73035714Y-77836785D02*
X73000000Y-77872500D01*
X73000000Y-77872500D02*
X72928571Y-77908214D01*
X72928571Y-77908214D02*
X72714285Y-77908214D01*
X72714285Y-77908214D02*
X72642857Y-77872500D01*
X72642857Y-77872500D02*
X72607142Y-77836785D01*
X73285714Y-77158214D02*
X73535714Y-77908214D01*
X73535714Y-77908214D02*
X73785714Y-77158214D01*
X73964285Y-77158214D02*
X74428571Y-77158214D01*
X74428571Y-77158214D02*
X74178571Y-77443928D01*
X74178571Y-77443928D02*
X74285714Y-77443928D01*
X74285714Y-77443928D02*
X74357143Y-77479642D01*
X74357143Y-77479642D02*
X74392857Y-77515357D01*
X74392857Y-77515357D02*
X74428571Y-77586785D01*
X74428571Y-77586785D02*
X74428571Y-77765357D01*
X74428571Y-77765357D02*
X74392857Y-77836785D01*
X74392857Y-77836785D02*
X74357143Y-77872500D01*
X74357143Y-77872500D02*
X74285714Y-77908214D01*
X74285714Y-77908214D02*
X74071428Y-77908214D01*
X74071428Y-77908214D02*
X74000000Y-77872500D01*
X74000000Y-77872500D02*
X73964285Y-77836785D01*
X74750000Y-77622500D02*
X75321429Y-77622500D01*
X75178571Y-77765357D02*
X75321429Y-77622500D01*
X75321429Y-77622500D02*
X75178571Y-77479642D01*
X81000000Y-77622500D02*
X80428571Y-77622500D01*
X80571428Y-77765357D02*
X80428571Y-77622500D01*
X80428571Y-77622500D02*
X80571428Y-77479642D01*
X81321428Y-77229642D02*
X81357142Y-77193928D01*
X81357142Y-77193928D02*
X81428571Y-77158214D01*
X81428571Y-77158214D02*
X81607142Y-77158214D01*
X81607142Y-77158214D02*
X81678571Y-77193928D01*
X81678571Y-77193928D02*
X81714285Y-77229642D01*
X81714285Y-77229642D02*
X81749999Y-77301071D01*
X81749999Y-77301071D02*
X81749999Y-77372500D01*
X81749999Y-77372500D02*
X81714285Y-77479642D01*
X81714285Y-77479642D02*
X81285713Y-77908214D01*
X81285713Y-77908214D02*
X81749999Y-77908214D01*
X82107142Y-77872500D02*
X82107142Y-77908214D01*
X82107142Y-77908214D02*
X82071428Y-77979642D01*
X82071428Y-77979642D02*
X82035714Y-78015357D01*
X82571428Y-77158214D02*
X82642857Y-77158214D01*
X82642857Y-77158214D02*
X82714285Y-77193928D01*
X82714285Y-77193928D02*
X82750000Y-77229642D01*
X82750000Y-77229642D02*
X82785714Y-77301071D01*
X82785714Y-77301071D02*
X82821428Y-77443928D01*
X82821428Y-77443928D02*
X82821428Y-77622500D01*
X82821428Y-77622500D02*
X82785714Y-77765357D01*
X82785714Y-77765357D02*
X82750000Y-77836785D01*
X82750000Y-77836785D02*
X82714285Y-77872500D01*
X82714285Y-77872500D02*
X82642857Y-77908214D01*
X82642857Y-77908214D02*
X82571428Y-77908214D01*
X82571428Y-77908214D02*
X82500000Y-77872500D01*
X82500000Y-77872500D02*
X82464285Y-77836785D01*
X82464285Y-77836785D02*
X82428571Y-77765357D01*
X82428571Y-77765357D02*
X82392857Y-77622500D01*
X82392857Y-77622500D02*
X82392857Y-77443928D01*
X82392857Y-77443928D02*
X82428571Y-77301071D01*
X82428571Y-77301071D02*
X82464285Y-77229642D01*
X82464285Y-77229642D02*
X82500000Y-77193928D01*
X82500000Y-77193928D02*
X82571428Y-77158214D01*
X83464286Y-77408214D02*
X83464286Y-77908214D01*
X83285714Y-77122500D02*
X83107143Y-77658214D01*
X83107143Y-77658214D02*
X83571428Y-77658214D01*
X83964286Y-77479642D02*
X83892857Y-77443928D01*
X83892857Y-77443928D02*
X83857143Y-77408214D01*
X83857143Y-77408214D02*
X83821429Y-77336785D01*
X83821429Y-77336785D02*
X83821429Y-77301071D01*
X83821429Y-77301071D02*
X83857143Y-77229642D01*
X83857143Y-77229642D02*
X83892857Y-77193928D01*
X83892857Y-77193928D02*
X83964286Y-77158214D01*
X83964286Y-77158214D02*
X84107143Y-77158214D01*
X84107143Y-77158214D02*
X84178572Y-77193928D01*
X84178572Y-77193928D02*
X84214286Y-77229642D01*
X84214286Y-77229642D02*
X84250000Y-77301071D01*
X84250000Y-77301071D02*
X84250000Y-77336785D01*
X84250000Y-77336785D02*
X84214286Y-77408214D01*
X84214286Y-77408214D02*
X84178572Y-77443928D01*
X84178572Y-77443928D02*
X84107143Y-77479642D01*
X84107143Y-77479642D02*
X83964286Y-77479642D01*
X83964286Y-77479642D02*
X83892857Y-77515357D01*
X83892857Y-77515357D02*
X83857143Y-77551071D01*
X83857143Y-77551071D02*
X83821429Y-77622500D01*
X83821429Y-77622500D02*
X83821429Y-77765357D01*
X83821429Y-77765357D02*
X83857143Y-77836785D01*
X83857143Y-77836785D02*
X83892857Y-77872500D01*
X83892857Y-77872500D02*
X83964286Y-77908214D01*
X83964286Y-77908214D02*
X84107143Y-77908214D01*
X84107143Y-77908214D02*
X84178572Y-77872500D01*
X84178572Y-77872500D02*
X84214286Y-77836785D01*
X84214286Y-77836785D02*
X84250000Y-77765357D01*
X84250000Y-77765357D02*
X84250000Y-77622500D01*
X84250000Y-77622500D02*
X84214286Y-77551071D01*
X84214286Y-77551071D02*
X84178572Y-77515357D01*
X84178572Y-77515357D02*
X84107143Y-77479642D01*
X84464286Y-77158214D02*
X84714286Y-77908214D01*
X84714286Y-77908214D02*
X84964286Y-77158214D01*
X74285714Y-57408214D02*
X73928571Y-57408214D01*
X73928571Y-57408214D02*
X73892857Y-57765357D01*
X73892857Y-57765357D02*
X73928571Y-57729642D01*
X73928571Y-57729642D02*
X74000000Y-57693928D01*
X74000000Y-57693928D02*
X74178571Y-57693928D01*
X74178571Y-57693928D02*
X74250000Y-57729642D01*
X74250000Y-57729642D02*
X74285714Y-57765357D01*
X74285714Y-57765357D02*
X74321428Y-57836785D01*
X74321428Y-57836785D02*
X74321428Y-58015357D01*
X74321428Y-58015357D02*
X74285714Y-58086785D01*
X74285714Y-58086785D02*
X74250000Y-58122500D01*
X74250000Y-58122500D02*
X74178571Y-58158214D01*
X74178571Y-58158214D02*
X74000000Y-58158214D01*
X74000000Y-58158214D02*
X73928571Y-58122500D01*
X73928571Y-58122500D02*
X73892857Y-58086785D01*
X74535714Y-57408214D02*
X74785714Y-58158214D01*
X74785714Y-58158214D02*
X75035714Y-57408214D01*
X76392857Y-57372500D02*
X75750000Y-58336785D01*
X77142857Y-57729642D02*
X77857143Y-57729642D01*
X77285715Y-57943928D02*
X77714286Y-57943928D01*
X77500000Y-57408214D02*
X77500000Y-57729642D01*
X77571429Y-58158214D02*
X77428572Y-58158214D01*
X58892857Y-74193928D02*
X59250000Y-74193928D01*
X58821428Y-74408214D02*
X59071428Y-73658214D01*
X59071428Y-73658214D02*
X59321428Y-74408214D01*
X59571428Y-74408214D02*
X59571428Y-73658214D01*
X59571428Y-73658214D02*
X59821428Y-74193928D01*
X59821428Y-74193928D02*
X60071428Y-73658214D01*
X60071428Y-73658214D02*
X60071428Y-74408214D01*
X60392857Y-74372500D02*
X60500000Y-74408214D01*
X60500000Y-74408214D02*
X60678571Y-74408214D01*
X60678571Y-74408214D02*
X60750000Y-74372500D01*
X60750000Y-74372500D02*
X60785714Y-74336785D01*
X60785714Y-74336785D02*
X60821428Y-74265357D01*
X60821428Y-74265357D02*
X60821428Y-74193928D01*
X60821428Y-74193928D02*
X60785714Y-74122500D01*
X60785714Y-74122500D02*
X60750000Y-74086785D01*
X60750000Y-74086785D02*
X60678571Y-74051071D01*
X60678571Y-74051071D02*
X60535714Y-74015357D01*
X60535714Y-74015357D02*
X60464285Y-73979642D01*
X60464285Y-73979642D02*
X60428571Y-73943928D01*
X60428571Y-73943928D02*
X60392857Y-73872500D01*
X60392857Y-73872500D02*
X60392857Y-73801071D01*
X60392857Y-73801071D02*
X60428571Y-73729642D01*
X60428571Y-73729642D02*
X60464285Y-73693928D01*
X60464285Y-73693928D02*
X60535714Y-73658214D01*
X60535714Y-73658214D02*
X60714285Y-73658214D01*
X60714285Y-73658214D02*
X60821428Y-73693928D01*
X61535714Y-74408214D02*
X61107143Y-74408214D01*
X61321428Y-74408214D02*
X61321428Y-73658214D01*
X61321428Y-73658214D02*
X61250000Y-73765357D01*
X61250000Y-73765357D02*
X61178571Y-73836785D01*
X61178571Y-73836785D02*
X61107143Y-73872500D01*
X62250000Y-74408214D02*
X61821429Y-74408214D01*
X62035714Y-74408214D02*
X62035714Y-73658214D01*
X62035714Y-73658214D02*
X61964286Y-73765357D01*
X61964286Y-73765357D02*
X61892857Y-73836785D01*
X61892857Y-73836785D02*
X61821429Y-73872500D01*
X62964286Y-74408214D02*
X62535715Y-74408214D01*
X62750000Y-74408214D02*
X62750000Y-73658214D01*
X62750000Y-73658214D02*
X62678572Y-73765357D01*
X62678572Y-73765357D02*
X62607143Y-73836785D01*
X62607143Y-73836785D02*
X62535715Y-73872500D01*
X63214286Y-73658214D02*
X63714286Y-73658214D01*
X63714286Y-73658214D02*
X63392858Y-74408214D01*
X64785716Y-74693928D02*
X64750001Y-74658214D01*
X64750001Y-74658214D02*
X64678573Y-74551071D01*
X64678573Y-74551071D02*
X64642859Y-74479642D01*
X64642859Y-74479642D02*
X64607144Y-74372500D01*
X64607144Y-74372500D02*
X64571430Y-74193928D01*
X64571430Y-74193928D02*
X64571430Y-74051071D01*
X64571430Y-74051071D02*
X64607144Y-73872500D01*
X64607144Y-73872500D02*
X64642859Y-73765357D01*
X64642859Y-73765357D02*
X64678573Y-73693928D01*
X64678573Y-73693928D02*
X64750001Y-73586785D01*
X64750001Y-73586785D02*
X64785716Y-73551071D01*
X65392859Y-74372500D02*
X65321430Y-74408214D01*
X65321430Y-74408214D02*
X65178573Y-74408214D01*
X65178573Y-74408214D02*
X65107144Y-74372500D01*
X65107144Y-74372500D02*
X65071430Y-74336785D01*
X65071430Y-74336785D02*
X65035716Y-74265357D01*
X65035716Y-74265357D02*
X65035716Y-74051071D01*
X65035716Y-74051071D02*
X65071430Y-73979642D01*
X65071430Y-73979642D02*
X65107144Y-73943928D01*
X65107144Y-73943928D02*
X65178573Y-73908214D01*
X65178573Y-73908214D02*
X65321430Y-73908214D01*
X65321430Y-73908214D02*
X65392859Y-73943928D01*
X65821430Y-74408214D02*
X65750001Y-74372500D01*
X65750001Y-74372500D02*
X65714287Y-74336785D01*
X65714287Y-74336785D02*
X65678573Y-74265357D01*
X65678573Y-74265357D02*
X65678573Y-74051071D01*
X65678573Y-74051071D02*
X65714287Y-73979642D01*
X65714287Y-73979642D02*
X65750001Y-73943928D01*
X65750001Y-73943928D02*
X65821430Y-73908214D01*
X65821430Y-73908214D02*
X65928573Y-73908214D01*
X65928573Y-73908214D02*
X66000001Y-73943928D01*
X66000001Y-73943928D02*
X66035716Y-73979642D01*
X66035716Y-73979642D02*
X66071430Y-74051071D01*
X66071430Y-74051071D02*
X66071430Y-74265357D01*
X66071430Y-74265357D02*
X66035716Y-74336785D01*
X66035716Y-74336785D02*
X66000001Y-74372500D01*
X66000001Y-74372500D02*
X65928573Y-74408214D01*
X65928573Y-74408214D02*
X65821430Y-74408214D01*
X66392858Y-74408214D02*
X66392858Y-73908214D01*
X66392858Y-73979642D02*
X66428572Y-73943928D01*
X66428572Y-73943928D02*
X66500001Y-73908214D01*
X66500001Y-73908214D02*
X66607144Y-73908214D01*
X66607144Y-73908214D02*
X66678572Y-73943928D01*
X66678572Y-73943928D02*
X66714287Y-74015357D01*
X66714287Y-74015357D02*
X66714287Y-74408214D01*
X66714287Y-74015357D02*
X66750001Y-73943928D01*
X66750001Y-73943928D02*
X66821429Y-73908214D01*
X66821429Y-73908214D02*
X66928572Y-73908214D01*
X66928572Y-73908214D02*
X67000001Y-73943928D01*
X67000001Y-73943928D02*
X67035715Y-74015357D01*
X67035715Y-74015357D02*
X67035715Y-74408214D01*
X67392858Y-73908214D02*
X67392858Y-74658214D01*
X67392858Y-73943928D02*
X67464287Y-73908214D01*
X67464287Y-73908214D02*
X67607144Y-73908214D01*
X67607144Y-73908214D02*
X67678572Y-73943928D01*
X67678572Y-73943928D02*
X67714287Y-73979642D01*
X67714287Y-73979642D02*
X67750001Y-74051071D01*
X67750001Y-74051071D02*
X67750001Y-74265357D01*
X67750001Y-74265357D02*
X67714287Y-74336785D01*
X67714287Y-74336785D02*
X67678572Y-74372500D01*
X67678572Y-74372500D02*
X67607144Y-74408214D01*
X67607144Y-74408214D02*
X67464287Y-74408214D01*
X67464287Y-74408214D02*
X67392858Y-74372500D01*
X68392858Y-74408214D02*
X68392858Y-74015357D01*
X68392858Y-74015357D02*
X68357143Y-73943928D01*
X68357143Y-73943928D02*
X68285715Y-73908214D01*
X68285715Y-73908214D02*
X68142858Y-73908214D01*
X68142858Y-73908214D02*
X68071429Y-73943928D01*
X68392858Y-74372500D02*
X68321429Y-74408214D01*
X68321429Y-74408214D02*
X68142858Y-74408214D01*
X68142858Y-74408214D02*
X68071429Y-74372500D01*
X68071429Y-74372500D02*
X68035715Y-74301071D01*
X68035715Y-74301071D02*
X68035715Y-74229642D01*
X68035715Y-74229642D02*
X68071429Y-74158214D01*
X68071429Y-74158214D02*
X68142858Y-74122500D01*
X68142858Y-74122500D02*
X68321429Y-74122500D01*
X68321429Y-74122500D02*
X68392858Y-74086785D01*
X68642857Y-73908214D02*
X68928571Y-73908214D01*
X68750000Y-73658214D02*
X68750000Y-74301071D01*
X68750000Y-74301071D02*
X68785714Y-74372500D01*
X68785714Y-74372500D02*
X68857143Y-74408214D01*
X68857143Y-74408214D02*
X68928571Y-74408214D01*
X69107142Y-74693928D02*
X69142857Y-74658214D01*
X69142857Y-74658214D02*
X69214285Y-74551071D01*
X69214285Y-74551071D02*
X69250000Y-74479642D01*
X69250000Y-74479642D02*
X69285714Y-74372500D01*
X69285714Y-74372500D02*
X69321428Y-74193928D01*
X69321428Y-74193928D02*
X69321428Y-74051071D01*
X69321428Y-74051071D02*
X69285714Y-73872500D01*
X69285714Y-73872500D02*
X69250000Y-73765357D01*
X69250000Y-73765357D02*
X69214285Y-73693928D01*
X69214285Y-73693928D02*
X69142857Y-73586785D01*
X69142857Y-73586785D02*
X69107142Y-73551071D01*
X73857142Y-82979642D02*
X74571428Y-82979642D01*
X74000000Y-83193928D02*
X74428571Y-83193928D01*
X74214285Y-82658214D02*
X74214285Y-82979642D01*
X74285714Y-83408214D02*
X74142857Y-83408214D01*
X75392856Y-82622500D02*
X74749999Y-83586785D01*
X75607142Y-82729642D02*
X75642856Y-82693928D01*
X75642856Y-82693928D02*
X75714285Y-82658214D01*
X75714285Y-82658214D02*
X75892856Y-82658214D01*
X75892856Y-82658214D02*
X75964285Y-82693928D01*
X75964285Y-82693928D02*
X75999999Y-82729642D01*
X75999999Y-82729642D02*
X76035713Y-82801071D01*
X76035713Y-82801071D02*
X76035713Y-82872500D01*
X76035713Y-82872500D02*
X75999999Y-82979642D01*
X75999999Y-82979642D02*
X75571427Y-83408214D01*
X75571427Y-83408214D02*
X76035713Y-83408214D01*
X76392856Y-83372500D02*
X76392856Y-83408214D01*
X76392856Y-83408214D02*
X76357142Y-83479642D01*
X76357142Y-83479642D02*
X76321428Y-83515357D01*
X76857142Y-82658214D02*
X76928571Y-82658214D01*
X76928571Y-82658214D02*
X76999999Y-82693928D01*
X76999999Y-82693928D02*
X77035714Y-82729642D01*
X77035714Y-82729642D02*
X77071428Y-82801071D01*
X77071428Y-82801071D02*
X77107142Y-82943928D01*
X77107142Y-82943928D02*
X77107142Y-83122500D01*
X77107142Y-83122500D02*
X77071428Y-83265357D01*
X77071428Y-83265357D02*
X77035714Y-83336785D01*
X77035714Y-83336785D02*
X76999999Y-83372500D01*
X76999999Y-83372500D02*
X76928571Y-83408214D01*
X76928571Y-83408214D02*
X76857142Y-83408214D01*
X76857142Y-83408214D02*
X76785714Y-83372500D01*
X76785714Y-83372500D02*
X76749999Y-83336785D01*
X76749999Y-83336785D02*
X76714285Y-83265357D01*
X76714285Y-83265357D02*
X76678571Y-83122500D01*
X76678571Y-83122500D02*
X76678571Y-82943928D01*
X76678571Y-82943928D02*
X76714285Y-82801071D01*
X76714285Y-82801071D02*
X76749999Y-82729642D01*
X76749999Y-82729642D02*
X76785714Y-82693928D01*
X76785714Y-82693928D02*
X76857142Y-82658214D01*
X77750000Y-82908214D02*
X77750000Y-83408214D01*
X77571428Y-82622500D02*
X77392857Y-83158214D01*
X77392857Y-83158214D02*
X77857142Y-83158214D01*
X78250000Y-82979642D02*
X78178571Y-82943928D01*
X78178571Y-82943928D02*
X78142857Y-82908214D01*
X78142857Y-82908214D02*
X78107143Y-82836785D01*
X78107143Y-82836785D02*
X78107143Y-82801071D01*
X78107143Y-82801071D02*
X78142857Y-82729642D01*
X78142857Y-82729642D02*
X78178571Y-82693928D01*
X78178571Y-82693928D02*
X78250000Y-82658214D01*
X78250000Y-82658214D02*
X78392857Y-82658214D01*
X78392857Y-82658214D02*
X78464286Y-82693928D01*
X78464286Y-82693928D02*
X78500000Y-82729642D01*
X78500000Y-82729642D02*
X78535714Y-82801071D01*
X78535714Y-82801071D02*
X78535714Y-82836785D01*
X78535714Y-82836785D02*
X78500000Y-82908214D01*
X78500000Y-82908214D02*
X78464286Y-82943928D01*
X78464286Y-82943928D02*
X78392857Y-82979642D01*
X78392857Y-82979642D02*
X78250000Y-82979642D01*
X78250000Y-82979642D02*
X78178571Y-83015357D01*
X78178571Y-83015357D02*
X78142857Y-83051071D01*
X78142857Y-83051071D02*
X78107143Y-83122500D01*
X78107143Y-83122500D02*
X78107143Y-83265357D01*
X78107143Y-83265357D02*
X78142857Y-83336785D01*
X78142857Y-83336785D02*
X78178571Y-83372500D01*
X78178571Y-83372500D02*
X78250000Y-83408214D01*
X78250000Y-83408214D02*
X78392857Y-83408214D01*
X78392857Y-83408214D02*
X78464286Y-83372500D01*
X78464286Y-83372500D02*
X78500000Y-83336785D01*
X78500000Y-83336785D02*
X78535714Y-83265357D01*
X78535714Y-83265357D02*
X78535714Y-83122500D01*
X78535714Y-83122500D02*
X78500000Y-83051071D01*
X78500000Y-83051071D02*
X78464286Y-83015357D01*
X78464286Y-83015357D02*
X78392857Y-82979642D01*
X78750000Y-82658214D02*
X79000000Y-83408214D01*
X79000000Y-83408214D02*
X79250000Y-82658214D01*
%TO.C,J2*%
X80249999Y-88153035D02*
X80249999Y-87617321D01*
X80249999Y-87617321D02*
X80285714Y-87510178D01*
X80285714Y-87510178D02*
X80357142Y-87438750D01*
X80357142Y-87438750D02*
X80464285Y-87403035D01*
X80464285Y-87403035D02*
X80535714Y-87403035D01*
X79928570Y-88081607D02*
X79892856Y-88117321D01*
X79892856Y-88117321D02*
X79821428Y-88153035D01*
X79821428Y-88153035D02*
X79642856Y-88153035D01*
X79642856Y-88153035D02*
X79571428Y-88117321D01*
X79571428Y-88117321D02*
X79535713Y-88081607D01*
X79535713Y-88081607D02*
X79499999Y-88010178D01*
X79499999Y-88010178D02*
X79499999Y-87938750D01*
X79499999Y-87938750D02*
X79535713Y-87831607D01*
X79535713Y-87831607D02*
X79964285Y-87403035D01*
X79964285Y-87403035D02*
X79499999Y-87403035D01*
%TO.C,J3*%
X71999999Y-52903035D02*
X71999999Y-52367321D01*
X71999999Y-52367321D02*
X72035714Y-52260178D01*
X72035714Y-52260178D02*
X72107142Y-52188750D01*
X72107142Y-52188750D02*
X72214285Y-52153035D01*
X72214285Y-52153035D02*
X72285714Y-52153035D01*
X71714285Y-52903035D02*
X71249999Y-52903035D01*
X71249999Y-52903035D02*
X71499999Y-52617321D01*
X71499999Y-52617321D02*
X71392856Y-52617321D01*
X71392856Y-52617321D02*
X71321428Y-52581607D01*
X71321428Y-52581607D02*
X71285713Y-52545892D01*
X71285713Y-52545892D02*
X71249999Y-52474464D01*
X71249999Y-52474464D02*
X71249999Y-52295892D01*
X71249999Y-52295892D02*
X71285713Y-52224464D01*
X71285713Y-52224464D02*
X71321428Y-52188750D01*
X71321428Y-52188750D02*
X71392856Y-52153035D01*
X71392856Y-52153035D02*
X71607142Y-52153035D01*
X71607142Y-52153035D02*
X71678570Y-52188750D01*
X71678570Y-52188750D02*
X71714285Y-52224464D01*
%TO.C,C8*%
X54874999Y-72275535D02*
X54839285Y-72311250D01*
X54839285Y-72311250D02*
X54732142Y-72346964D01*
X54732142Y-72346964D02*
X54660714Y-72346964D01*
X54660714Y-72346964D02*
X54553571Y-72311250D01*
X54553571Y-72311250D02*
X54482142Y-72239821D01*
X54482142Y-72239821D02*
X54446428Y-72168392D01*
X54446428Y-72168392D02*
X54410714Y-72025535D01*
X54410714Y-72025535D02*
X54410714Y-71918392D01*
X54410714Y-71918392D02*
X54446428Y-71775535D01*
X54446428Y-71775535D02*
X54482142Y-71704107D01*
X54482142Y-71704107D02*
X54553571Y-71632678D01*
X54553571Y-71632678D02*
X54660714Y-71596964D01*
X54660714Y-71596964D02*
X54732142Y-71596964D01*
X54732142Y-71596964D02*
X54839285Y-71632678D01*
X54839285Y-71632678D02*
X54874999Y-71668392D01*
X55303571Y-71918392D02*
X55232142Y-71882678D01*
X55232142Y-71882678D02*
X55196428Y-71846964D01*
X55196428Y-71846964D02*
X55160714Y-71775535D01*
X55160714Y-71775535D02*
X55160714Y-71739821D01*
X55160714Y-71739821D02*
X55196428Y-71668392D01*
X55196428Y-71668392D02*
X55232142Y-71632678D01*
X55232142Y-71632678D02*
X55303571Y-71596964D01*
X55303571Y-71596964D02*
X55446428Y-71596964D01*
X55446428Y-71596964D02*
X55517857Y-71632678D01*
X55517857Y-71632678D02*
X55553571Y-71668392D01*
X55553571Y-71668392D02*
X55589285Y-71739821D01*
X55589285Y-71739821D02*
X55589285Y-71775535D01*
X55589285Y-71775535D02*
X55553571Y-71846964D01*
X55553571Y-71846964D02*
X55517857Y-71882678D01*
X55517857Y-71882678D02*
X55446428Y-71918392D01*
X55446428Y-71918392D02*
X55303571Y-71918392D01*
X55303571Y-71918392D02*
X55232142Y-71954107D01*
X55232142Y-71954107D02*
X55196428Y-71989821D01*
X55196428Y-71989821D02*
X55160714Y-72061250D01*
X55160714Y-72061250D02*
X55160714Y-72204107D01*
X55160714Y-72204107D02*
X55196428Y-72275535D01*
X55196428Y-72275535D02*
X55232142Y-72311250D01*
X55232142Y-72311250D02*
X55303571Y-72346964D01*
X55303571Y-72346964D02*
X55446428Y-72346964D01*
X55446428Y-72346964D02*
X55517857Y-72311250D01*
X55517857Y-72311250D02*
X55553571Y-72275535D01*
X55553571Y-72275535D02*
X55589285Y-72204107D01*
X55589285Y-72204107D02*
X55589285Y-72061250D01*
X55589285Y-72061250D02*
X55553571Y-71989821D01*
X55553571Y-71989821D02*
X55517857Y-71954107D01*
X55517857Y-71954107D02*
X55446428Y-71918392D01*
%TO.C,C2*%
X54874999Y-77525535D02*
X54839285Y-77561250D01*
X54839285Y-77561250D02*
X54732142Y-77596964D01*
X54732142Y-77596964D02*
X54660714Y-77596964D01*
X54660714Y-77596964D02*
X54553571Y-77561250D01*
X54553571Y-77561250D02*
X54482142Y-77489821D01*
X54482142Y-77489821D02*
X54446428Y-77418392D01*
X54446428Y-77418392D02*
X54410714Y-77275535D01*
X54410714Y-77275535D02*
X54410714Y-77168392D01*
X54410714Y-77168392D02*
X54446428Y-77025535D01*
X54446428Y-77025535D02*
X54482142Y-76954107D01*
X54482142Y-76954107D02*
X54553571Y-76882678D01*
X54553571Y-76882678D02*
X54660714Y-76846964D01*
X54660714Y-76846964D02*
X54732142Y-76846964D01*
X54732142Y-76846964D02*
X54839285Y-76882678D01*
X54839285Y-76882678D02*
X54874999Y-76918392D01*
X55160714Y-76918392D02*
X55196428Y-76882678D01*
X55196428Y-76882678D02*
X55267857Y-76846964D01*
X55267857Y-76846964D02*
X55446428Y-76846964D01*
X55446428Y-76846964D02*
X55517857Y-76882678D01*
X55517857Y-76882678D02*
X55553571Y-76918392D01*
X55553571Y-76918392D02*
X55589285Y-76989821D01*
X55589285Y-76989821D02*
X55589285Y-77061250D01*
X55589285Y-77061250D02*
X55553571Y-77168392D01*
X55553571Y-77168392D02*
X55124999Y-77596964D01*
X55124999Y-77596964D02*
X55589285Y-77596964D01*
%TO.C,C10*%
X70267856Y-72455535D02*
X70232142Y-72491250D01*
X70232142Y-72491250D02*
X70124999Y-72526964D01*
X70124999Y-72526964D02*
X70053571Y-72526964D01*
X70053571Y-72526964D02*
X69946428Y-72491250D01*
X69946428Y-72491250D02*
X69874999Y-72419821D01*
X69874999Y-72419821D02*
X69839285Y-72348392D01*
X69839285Y-72348392D02*
X69803571Y-72205535D01*
X69803571Y-72205535D02*
X69803571Y-72098392D01*
X69803571Y-72098392D02*
X69839285Y-71955535D01*
X69839285Y-71955535D02*
X69874999Y-71884107D01*
X69874999Y-71884107D02*
X69946428Y-71812678D01*
X69946428Y-71812678D02*
X70053571Y-71776964D01*
X70053571Y-71776964D02*
X70124999Y-71776964D01*
X70124999Y-71776964D02*
X70232142Y-71812678D01*
X70232142Y-71812678D02*
X70267856Y-71848392D01*
X70982142Y-72526964D02*
X70553571Y-72526964D01*
X70767856Y-72526964D02*
X70767856Y-71776964D01*
X70767856Y-71776964D02*
X70696428Y-71884107D01*
X70696428Y-71884107D02*
X70624999Y-71955535D01*
X70624999Y-71955535D02*
X70553571Y-71991250D01*
X71446428Y-71776964D02*
X71517857Y-71776964D01*
X71517857Y-71776964D02*
X71589285Y-71812678D01*
X71589285Y-71812678D02*
X71625000Y-71848392D01*
X71625000Y-71848392D02*
X71660714Y-71919821D01*
X71660714Y-71919821D02*
X71696428Y-72062678D01*
X71696428Y-72062678D02*
X71696428Y-72241250D01*
X71696428Y-72241250D02*
X71660714Y-72384107D01*
X71660714Y-72384107D02*
X71625000Y-72455535D01*
X71625000Y-72455535D02*
X71589285Y-72491250D01*
X71589285Y-72491250D02*
X71517857Y-72526964D01*
X71517857Y-72526964D02*
X71446428Y-72526964D01*
X71446428Y-72526964D02*
X71375000Y-72491250D01*
X71375000Y-72491250D02*
X71339285Y-72455535D01*
X71339285Y-72455535D02*
X71303571Y-72384107D01*
X71303571Y-72384107D02*
X71267857Y-72241250D01*
X71267857Y-72241250D02*
X71267857Y-72062678D01*
X71267857Y-72062678D02*
X71303571Y-71919821D01*
X71303571Y-71919821D02*
X71339285Y-71848392D01*
X71339285Y-71848392D02*
X71375000Y-71812678D01*
X71375000Y-71812678D02*
X71446428Y-71776964D01*
%TO.C,TP3*%
X83607143Y-59596964D02*
X83250000Y-59596964D01*
X83250000Y-59596964D02*
X83214286Y-59954107D01*
X83214286Y-59954107D02*
X83250000Y-59918392D01*
X83250000Y-59918392D02*
X83321429Y-59882678D01*
X83321429Y-59882678D02*
X83500000Y-59882678D01*
X83500000Y-59882678D02*
X83571429Y-59918392D01*
X83571429Y-59918392D02*
X83607143Y-59954107D01*
X83607143Y-59954107D02*
X83642857Y-60025535D01*
X83642857Y-60025535D02*
X83642857Y-60204107D01*
X83642857Y-60204107D02*
X83607143Y-60275535D01*
X83607143Y-60275535D02*
X83571429Y-60311250D01*
X83571429Y-60311250D02*
X83500000Y-60346964D01*
X83500000Y-60346964D02*
X83321429Y-60346964D01*
X83321429Y-60346964D02*
X83250000Y-60311250D01*
X83250000Y-60311250D02*
X83214286Y-60275535D01*
X83857143Y-59596964D02*
X84107143Y-60346964D01*
X84107143Y-60346964D02*
X84357143Y-59596964D01*
%TO.C,TP5*%
X82571428Y-69596964D02*
X83035714Y-69596964D01*
X83035714Y-69596964D02*
X82785714Y-69882678D01*
X82785714Y-69882678D02*
X82892857Y-69882678D01*
X82892857Y-69882678D02*
X82964286Y-69918392D01*
X82964286Y-69918392D02*
X83000000Y-69954107D01*
X83000000Y-69954107D02*
X83035714Y-70025535D01*
X83035714Y-70025535D02*
X83035714Y-70204107D01*
X83035714Y-70204107D02*
X83000000Y-70275535D01*
X83000000Y-70275535D02*
X82964286Y-70311250D01*
X82964286Y-70311250D02*
X82892857Y-70346964D01*
X82892857Y-70346964D02*
X82678571Y-70346964D01*
X82678571Y-70346964D02*
X82607143Y-70311250D01*
X82607143Y-70311250D02*
X82571428Y-70275535D01*
X83250000Y-69596964D02*
X83500000Y-70346964D01*
X83500000Y-70346964D02*
X83750000Y-69596964D01*
X83928571Y-69596964D02*
X84392857Y-69596964D01*
X84392857Y-69596964D02*
X84142857Y-69882678D01*
X84142857Y-69882678D02*
X84250000Y-69882678D01*
X84250000Y-69882678D02*
X84321429Y-69918392D01*
X84321429Y-69918392D02*
X84357143Y-69954107D01*
X84357143Y-69954107D02*
X84392857Y-70025535D01*
X84392857Y-70025535D02*
X84392857Y-70204107D01*
X84392857Y-70204107D02*
X84357143Y-70275535D01*
X84357143Y-70275535D02*
X84321429Y-70311250D01*
X84321429Y-70311250D02*
X84250000Y-70346964D01*
X84250000Y-70346964D02*
X84035714Y-70346964D01*
X84035714Y-70346964D02*
X83964286Y-70311250D01*
X83964286Y-70311250D02*
X83928571Y-70275535D01*
%TO.C,C9*%
X70624999Y-67275535D02*
X70589285Y-67311250D01*
X70589285Y-67311250D02*
X70482142Y-67346964D01*
X70482142Y-67346964D02*
X70410714Y-67346964D01*
X70410714Y-67346964D02*
X70303571Y-67311250D01*
X70303571Y-67311250D02*
X70232142Y-67239821D01*
X70232142Y-67239821D02*
X70196428Y-67168392D01*
X70196428Y-67168392D02*
X70160714Y-67025535D01*
X70160714Y-67025535D02*
X70160714Y-66918392D01*
X70160714Y-66918392D02*
X70196428Y-66775535D01*
X70196428Y-66775535D02*
X70232142Y-66704107D01*
X70232142Y-66704107D02*
X70303571Y-66632678D01*
X70303571Y-66632678D02*
X70410714Y-66596964D01*
X70410714Y-66596964D02*
X70482142Y-66596964D01*
X70482142Y-66596964D02*
X70589285Y-66632678D01*
X70589285Y-66632678D02*
X70624999Y-66668392D01*
X70982142Y-67346964D02*
X71124999Y-67346964D01*
X71124999Y-67346964D02*
X71196428Y-67311250D01*
X71196428Y-67311250D02*
X71232142Y-67275535D01*
X71232142Y-67275535D02*
X71303571Y-67168392D01*
X71303571Y-67168392D02*
X71339285Y-67025535D01*
X71339285Y-67025535D02*
X71339285Y-66739821D01*
X71339285Y-66739821D02*
X71303571Y-66668392D01*
X71303571Y-66668392D02*
X71267857Y-66632678D01*
X71267857Y-66632678D02*
X71196428Y-66596964D01*
X71196428Y-66596964D02*
X71053571Y-66596964D01*
X71053571Y-66596964D02*
X70982142Y-66632678D01*
X70982142Y-66632678D02*
X70946428Y-66668392D01*
X70946428Y-66668392D02*
X70910714Y-66739821D01*
X70910714Y-66739821D02*
X70910714Y-66918392D01*
X70910714Y-66918392D02*
X70946428Y-66989821D01*
X70946428Y-66989821D02*
X70982142Y-67025535D01*
X70982142Y-67025535D02*
X71053571Y-67061250D01*
X71053571Y-67061250D02*
X71196428Y-67061250D01*
X71196428Y-67061250D02*
X71267857Y-67025535D01*
X71267857Y-67025535D02*
X71303571Y-66989821D01*
X71303571Y-66989821D02*
X71339285Y-66918392D01*
%TO.C,L1*%
X67875000Y-62096964D02*
X67517857Y-62096964D01*
X67517857Y-62096964D02*
X67517857Y-61346964D01*
X68517857Y-62096964D02*
X68089286Y-62096964D01*
X68303571Y-62096964D02*
X68303571Y-61346964D01*
X68303571Y-61346964D02*
X68232143Y-61454107D01*
X68232143Y-61454107D02*
X68160714Y-61525535D01*
X68160714Y-61525535D02*
X68089286Y-61561250D01*
%TO.C,R1*%
X74624999Y-74259464D02*
X74374999Y-73902321D01*
X74196428Y-74259464D02*
X74196428Y-73509464D01*
X74196428Y-73509464D02*
X74482142Y-73509464D01*
X74482142Y-73509464D02*
X74553571Y-73545178D01*
X74553571Y-73545178D02*
X74589285Y-73580892D01*
X74589285Y-73580892D02*
X74624999Y-73652321D01*
X74624999Y-73652321D02*
X74624999Y-73759464D01*
X74624999Y-73759464D02*
X74589285Y-73830892D01*
X74589285Y-73830892D02*
X74553571Y-73866607D01*
X74553571Y-73866607D02*
X74482142Y-73902321D01*
X74482142Y-73902321D02*
X74196428Y-73902321D01*
X75339285Y-74259464D02*
X74910714Y-74259464D01*
X75124999Y-74259464D02*
X75124999Y-73509464D01*
X75124999Y-73509464D02*
X75053571Y-73616607D01*
X75053571Y-73616607D02*
X74982142Y-73688035D01*
X74982142Y-73688035D02*
X74910714Y-73723750D01*
%TO.C,C3*%
X54874999Y-79275535D02*
X54839285Y-79311250D01*
X54839285Y-79311250D02*
X54732142Y-79346964D01*
X54732142Y-79346964D02*
X54660714Y-79346964D01*
X54660714Y-79346964D02*
X54553571Y-79311250D01*
X54553571Y-79311250D02*
X54482142Y-79239821D01*
X54482142Y-79239821D02*
X54446428Y-79168392D01*
X54446428Y-79168392D02*
X54410714Y-79025535D01*
X54410714Y-79025535D02*
X54410714Y-78918392D01*
X54410714Y-78918392D02*
X54446428Y-78775535D01*
X54446428Y-78775535D02*
X54482142Y-78704107D01*
X54482142Y-78704107D02*
X54553571Y-78632678D01*
X54553571Y-78632678D02*
X54660714Y-78596964D01*
X54660714Y-78596964D02*
X54732142Y-78596964D01*
X54732142Y-78596964D02*
X54839285Y-78632678D01*
X54839285Y-78632678D02*
X54874999Y-78668392D01*
X55124999Y-78596964D02*
X55589285Y-78596964D01*
X55589285Y-78596964D02*
X55339285Y-78882678D01*
X55339285Y-78882678D02*
X55446428Y-78882678D01*
X55446428Y-78882678D02*
X55517857Y-78918392D01*
X55517857Y-78918392D02*
X55553571Y-78954107D01*
X55553571Y-78954107D02*
X55589285Y-79025535D01*
X55589285Y-79025535D02*
X55589285Y-79204107D01*
X55589285Y-79204107D02*
X55553571Y-79275535D01*
X55553571Y-79275535D02*
X55517857Y-79311250D01*
X55517857Y-79311250D02*
X55446428Y-79346964D01*
X55446428Y-79346964D02*
X55232142Y-79346964D01*
X55232142Y-79346964D02*
X55160714Y-79311250D01*
X55160714Y-79311250D02*
X55124999Y-79275535D01*
%TO.C,U1*%
X63791071Y-75946964D02*
X63791071Y-76554107D01*
X63791071Y-76554107D02*
X63826785Y-76625535D01*
X63826785Y-76625535D02*
X63862500Y-76661250D01*
X63862500Y-76661250D02*
X63933928Y-76696964D01*
X63933928Y-76696964D02*
X64076785Y-76696964D01*
X64076785Y-76696964D02*
X64148214Y-76661250D01*
X64148214Y-76661250D02*
X64183928Y-76625535D01*
X64183928Y-76625535D02*
X64219642Y-76554107D01*
X64219642Y-76554107D02*
X64219642Y-75946964D01*
X64969642Y-76696964D02*
X64541071Y-76696964D01*
X64755356Y-76696964D02*
X64755356Y-75946964D01*
X64755356Y-75946964D02*
X64683928Y-76054107D01*
X64683928Y-76054107D02*
X64612499Y-76125535D01*
X64612499Y-76125535D02*
X64541071Y-76161250D01*
%TO.C,C11*%
X76017856Y-66575535D02*
X75982142Y-66611250D01*
X75982142Y-66611250D02*
X75874999Y-66646964D01*
X75874999Y-66646964D02*
X75803571Y-66646964D01*
X75803571Y-66646964D02*
X75696428Y-66611250D01*
X75696428Y-66611250D02*
X75624999Y-66539821D01*
X75624999Y-66539821D02*
X75589285Y-66468392D01*
X75589285Y-66468392D02*
X75553571Y-66325535D01*
X75553571Y-66325535D02*
X75553571Y-66218392D01*
X75553571Y-66218392D02*
X75589285Y-66075535D01*
X75589285Y-66075535D02*
X75624999Y-66004107D01*
X75624999Y-66004107D02*
X75696428Y-65932678D01*
X75696428Y-65932678D02*
X75803571Y-65896964D01*
X75803571Y-65896964D02*
X75874999Y-65896964D01*
X75874999Y-65896964D02*
X75982142Y-65932678D01*
X75982142Y-65932678D02*
X76017856Y-65968392D01*
X76732142Y-66646964D02*
X76303571Y-66646964D01*
X76517856Y-66646964D02*
X76517856Y-65896964D01*
X76517856Y-65896964D02*
X76446428Y-66004107D01*
X76446428Y-66004107D02*
X76374999Y-66075535D01*
X76374999Y-66075535D02*
X76303571Y-66111250D01*
X77446428Y-66646964D02*
X77017857Y-66646964D01*
X77232142Y-66646964D02*
X77232142Y-65896964D01*
X77232142Y-65896964D02*
X77160714Y-66004107D01*
X77160714Y-66004107D02*
X77089285Y-66075535D01*
X77089285Y-66075535D02*
X77017857Y-66111250D01*
%TO.C,J1*%
X64750000Y-57846964D02*
X64750000Y-58382678D01*
X64750000Y-58382678D02*
X64714285Y-58489821D01*
X64714285Y-58489821D02*
X64642857Y-58561250D01*
X64642857Y-58561250D02*
X64535714Y-58596964D01*
X64535714Y-58596964D02*
X64464285Y-58596964D01*
X65500000Y-58596964D02*
X65071429Y-58596964D01*
X65285714Y-58596964D02*
X65285714Y-57846964D01*
X65285714Y-57846964D02*
X65214286Y-57954107D01*
X65214286Y-57954107D02*
X65142857Y-58025535D01*
X65142857Y-58025535D02*
X65071429Y-58061250D01*
%TO.C,TP2*%
X83178571Y-74632678D02*
X83107143Y-74596964D01*
X83107143Y-74596964D02*
X83000000Y-74596964D01*
X83000000Y-74596964D02*
X82892857Y-74632678D01*
X82892857Y-74632678D02*
X82821428Y-74704107D01*
X82821428Y-74704107D02*
X82785714Y-74775535D01*
X82785714Y-74775535D02*
X82750000Y-74918392D01*
X82750000Y-74918392D02*
X82750000Y-75025535D01*
X82750000Y-75025535D02*
X82785714Y-75168392D01*
X82785714Y-75168392D02*
X82821428Y-75239821D01*
X82821428Y-75239821D02*
X82892857Y-75311250D01*
X82892857Y-75311250D02*
X83000000Y-75346964D01*
X83000000Y-75346964D02*
X83071428Y-75346964D01*
X83071428Y-75346964D02*
X83178571Y-75311250D01*
X83178571Y-75311250D02*
X83214285Y-75275535D01*
X83214285Y-75275535D02*
X83214285Y-75025535D01*
X83214285Y-75025535D02*
X83071428Y-75025535D01*
X83535714Y-75346964D02*
X83535714Y-74596964D01*
X83535714Y-74596964D02*
X83964285Y-75346964D01*
X83964285Y-75346964D02*
X83964285Y-74596964D01*
X84321428Y-75346964D02*
X84321428Y-74596964D01*
X84321428Y-74596964D02*
X84499999Y-74596964D01*
X84499999Y-74596964D02*
X84607142Y-74632678D01*
X84607142Y-74632678D02*
X84678571Y-74704107D01*
X84678571Y-74704107D02*
X84714285Y-74775535D01*
X84714285Y-74775535D02*
X84749999Y-74918392D01*
X84749999Y-74918392D02*
X84749999Y-75025535D01*
X84749999Y-75025535D02*
X84714285Y-75168392D01*
X84714285Y-75168392D02*
X84678571Y-75239821D01*
X84678571Y-75239821D02*
X84607142Y-75311250D01*
X84607142Y-75311250D02*
X84499999Y-75346964D01*
X84499999Y-75346964D02*
X84321428Y-75346964D01*
%TO.C,TP1*%
X80714285Y-79668392D02*
X80749999Y-79632678D01*
X80749999Y-79632678D02*
X80821428Y-79596964D01*
X80821428Y-79596964D02*
X80999999Y-79596964D01*
X80999999Y-79596964D02*
X81071428Y-79632678D01*
X81071428Y-79632678D02*
X81107142Y-79668392D01*
X81107142Y-79668392D02*
X81142856Y-79739821D01*
X81142856Y-79739821D02*
X81142856Y-79811250D01*
X81142856Y-79811250D02*
X81107142Y-79918392D01*
X81107142Y-79918392D02*
X80678570Y-80346964D01*
X80678570Y-80346964D02*
X81142856Y-80346964D01*
X81499999Y-80311250D02*
X81499999Y-80346964D01*
X81499999Y-80346964D02*
X81464285Y-80418392D01*
X81464285Y-80418392D02*
X81428571Y-80454107D01*
X81964285Y-79596964D02*
X82035714Y-79596964D01*
X82035714Y-79596964D02*
X82107142Y-79632678D01*
X82107142Y-79632678D02*
X82142857Y-79668392D01*
X82142857Y-79668392D02*
X82178571Y-79739821D01*
X82178571Y-79739821D02*
X82214285Y-79882678D01*
X82214285Y-79882678D02*
X82214285Y-80061250D01*
X82214285Y-80061250D02*
X82178571Y-80204107D01*
X82178571Y-80204107D02*
X82142857Y-80275535D01*
X82142857Y-80275535D02*
X82107142Y-80311250D01*
X82107142Y-80311250D02*
X82035714Y-80346964D01*
X82035714Y-80346964D02*
X81964285Y-80346964D01*
X81964285Y-80346964D02*
X81892857Y-80311250D01*
X81892857Y-80311250D02*
X81857142Y-80275535D01*
X81857142Y-80275535D02*
X81821428Y-80204107D01*
X81821428Y-80204107D02*
X81785714Y-80061250D01*
X81785714Y-80061250D02*
X81785714Y-79882678D01*
X81785714Y-79882678D02*
X81821428Y-79739821D01*
X81821428Y-79739821D02*
X81857142Y-79668392D01*
X81857142Y-79668392D02*
X81892857Y-79632678D01*
X81892857Y-79632678D02*
X81964285Y-79596964D01*
X82857143Y-79846964D02*
X82857143Y-80346964D01*
X82678571Y-79561250D02*
X82500000Y-80096964D01*
X82500000Y-80096964D02*
X82964285Y-80096964D01*
X83357143Y-79918392D02*
X83285714Y-79882678D01*
X83285714Y-79882678D02*
X83250000Y-79846964D01*
X83250000Y-79846964D02*
X83214286Y-79775535D01*
X83214286Y-79775535D02*
X83214286Y-79739821D01*
X83214286Y-79739821D02*
X83250000Y-79668392D01*
X83250000Y-79668392D02*
X83285714Y-79632678D01*
X83285714Y-79632678D02*
X83357143Y-79596964D01*
X83357143Y-79596964D02*
X83500000Y-79596964D01*
X83500000Y-79596964D02*
X83571429Y-79632678D01*
X83571429Y-79632678D02*
X83607143Y-79668392D01*
X83607143Y-79668392D02*
X83642857Y-79739821D01*
X83642857Y-79739821D02*
X83642857Y-79775535D01*
X83642857Y-79775535D02*
X83607143Y-79846964D01*
X83607143Y-79846964D02*
X83571429Y-79882678D01*
X83571429Y-79882678D02*
X83500000Y-79918392D01*
X83500000Y-79918392D02*
X83357143Y-79918392D01*
X83357143Y-79918392D02*
X83285714Y-79954107D01*
X83285714Y-79954107D02*
X83250000Y-79989821D01*
X83250000Y-79989821D02*
X83214286Y-80061250D01*
X83214286Y-80061250D02*
X83214286Y-80204107D01*
X83214286Y-80204107D02*
X83250000Y-80275535D01*
X83250000Y-80275535D02*
X83285714Y-80311250D01*
X83285714Y-80311250D02*
X83357143Y-80346964D01*
X83357143Y-80346964D02*
X83500000Y-80346964D01*
X83500000Y-80346964D02*
X83571429Y-80311250D01*
X83571429Y-80311250D02*
X83607143Y-80275535D01*
X83607143Y-80275535D02*
X83642857Y-80204107D01*
X83642857Y-80204107D02*
X83642857Y-80061250D01*
X83642857Y-80061250D02*
X83607143Y-79989821D01*
X83607143Y-79989821D02*
X83571429Y-79954107D01*
X83571429Y-79954107D02*
X83500000Y-79918392D01*
X83857143Y-79596964D02*
X84107143Y-80346964D01*
X84107143Y-80346964D02*
X84357143Y-79596964D01*
%TO.C,TP4*%
X83178571Y-64632678D02*
X83107143Y-64596964D01*
X83107143Y-64596964D02*
X83000000Y-64596964D01*
X83000000Y-64596964D02*
X82892857Y-64632678D01*
X82892857Y-64632678D02*
X82821428Y-64704107D01*
X82821428Y-64704107D02*
X82785714Y-64775535D01*
X82785714Y-64775535D02*
X82750000Y-64918392D01*
X82750000Y-64918392D02*
X82750000Y-65025535D01*
X82750000Y-65025535D02*
X82785714Y-65168392D01*
X82785714Y-65168392D02*
X82821428Y-65239821D01*
X82821428Y-65239821D02*
X82892857Y-65311250D01*
X82892857Y-65311250D02*
X83000000Y-65346964D01*
X83000000Y-65346964D02*
X83071428Y-65346964D01*
X83071428Y-65346964D02*
X83178571Y-65311250D01*
X83178571Y-65311250D02*
X83214285Y-65275535D01*
X83214285Y-65275535D02*
X83214285Y-65025535D01*
X83214285Y-65025535D02*
X83071428Y-65025535D01*
X83535714Y-65346964D02*
X83535714Y-64596964D01*
X83535714Y-64596964D02*
X83964285Y-65346964D01*
X83964285Y-65346964D02*
X83964285Y-64596964D01*
X84321428Y-65346964D02*
X84321428Y-64596964D01*
X84321428Y-64596964D02*
X84499999Y-64596964D01*
X84499999Y-64596964D02*
X84607142Y-64632678D01*
X84607142Y-64632678D02*
X84678571Y-64704107D01*
X84678571Y-64704107D02*
X84714285Y-64775535D01*
X84714285Y-64775535D02*
X84749999Y-64918392D01*
X84749999Y-64918392D02*
X84749999Y-65025535D01*
X84749999Y-65025535D02*
X84714285Y-65168392D01*
X84714285Y-65168392D02*
X84678571Y-65239821D01*
X84678571Y-65239821D02*
X84607142Y-65311250D01*
X84607142Y-65311250D02*
X84499999Y-65346964D01*
X84499999Y-65346964D02*
X84321428Y-65346964D01*
%TO.C,C4*%
X69987499Y-78595535D02*
X69951785Y-78631250D01*
X69951785Y-78631250D02*
X69844642Y-78666964D01*
X69844642Y-78666964D02*
X69773214Y-78666964D01*
X69773214Y-78666964D02*
X69666071Y-78631250D01*
X69666071Y-78631250D02*
X69594642Y-78559821D01*
X69594642Y-78559821D02*
X69558928Y-78488392D01*
X69558928Y-78488392D02*
X69523214Y-78345535D01*
X69523214Y-78345535D02*
X69523214Y-78238392D01*
X69523214Y-78238392D02*
X69558928Y-78095535D01*
X69558928Y-78095535D02*
X69594642Y-78024107D01*
X69594642Y-78024107D02*
X69666071Y-77952678D01*
X69666071Y-77952678D02*
X69773214Y-77916964D01*
X69773214Y-77916964D02*
X69844642Y-77916964D01*
X69844642Y-77916964D02*
X69951785Y-77952678D01*
X69951785Y-77952678D02*
X69987499Y-77988392D01*
X70630357Y-78166964D02*
X70630357Y-78666964D01*
X70451785Y-77881250D02*
X70273214Y-78416964D01*
X70273214Y-78416964D02*
X70737499Y-78416964D01*
%TO.C,D1*%
X75446428Y-80846964D02*
X75446428Y-80096964D01*
X75446428Y-80096964D02*
X75624999Y-80096964D01*
X75624999Y-80096964D02*
X75732142Y-80132678D01*
X75732142Y-80132678D02*
X75803571Y-80204107D01*
X75803571Y-80204107D02*
X75839285Y-80275535D01*
X75839285Y-80275535D02*
X75874999Y-80418392D01*
X75874999Y-80418392D02*
X75874999Y-80525535D01*
X75874999Y-80525535D02*
X75839285Y-80668392D01*
X75839285Y-80668392D02*
X75803571Y-80739821D01*
X75803571Y-80739821D02*
X75732142Y-80811250D01*
X75732142Y-80811250D02*
X75624999Y-80846964D01*
X75624999Y-80846964D02*
X75446428Y-80846964D01*
X76589285Y-80846964D02*
X76160714Y-80846964D01*
X76374999Y-80846964D02*
X76374999Y-80096964D01*
X76374999Y-80096964D02*
X76303571Y-80204107D01*
X76303571Y-80204107D02*
X76232142Y-80275535D01*
X76232142Y-80275535D02*
X76160714Y-80311250D01*
%TO.C,C7*%
X54874999Y-70525535D02*
X54839285Y-70561250D01*
X54839285Y-70561250D02*
X54732142Y-70596964D01*
X54732142Y-70596964D02*
X54660714Y-70596964D01*
X54660714Y-70596964D02*
X54553571Y-70561250D01*
X54553571Y-70561250D02*
X54482142Y-70489821D01*
X54482142Y-70489821D02*
X54446428Y-70418392D01*
X54446428Y-70418392D02*
X54410714Y-70275535D01*
X54410714Y-70275535D02*
X54410714Y-70168392D01*
X54410714Y-70168392D02*
X54446428Y-70025535D01*
X54446428Y-70025535D02*
X54482142Y-69954107D01*
X54482142Y-69954107D02*
X54553571Y-69882678D01*
X54553571Y-69882678D02*
X54660714Y-69846964D01*
X54660714Y-69846964D02*
X54732142Y-69846964D01*
X54732142Y-69846964D02*
X54839285Y-69882678D01*
X54839285Y-69882678D02*
X54874999Y-69918392D01*
X55124999Y-69846964D02*
X55624999Y-69846964D01*
X55624999Y-69846964D02*
X55303571Y-70596964D01*
%TO.C,U2*%
X63678571Y-64846964D02*
X63678571Y-65454107D01*
X63678571Y-65454107D02*
X63714285Y-65525535D01*
X63714285Y-65525535D02*
X63750000Y-65561250D01*
X63750000Y-65561250D02*
X63821428Y-65596964D01*
X63821428Y-65596964D02*
X63964285Y-65596964D01*
X63964285Y-65596964D02*
X64035714Y-65561250D01*
X64035714Y-65561250D02*
X64071428Y-65525535D01*
X64071428Y-65525535D02*
X64107142Y-65454107D01*
X64107142Y-65454107D02*
X64107142Y-64846964D01*
X64428571Y-64918392D02*
X64464285Y-64882678D01*
X64464285Y-64882678D02*
X64535714Y-64846964D01*
X64535714Y-64846964D02*
X64714285Y-64846964D01*
X64714285Y-64846964D02*
X64785714Y-64882678D01*
X64785714Y-64882678D02*
X64821428Y-64918392D01*
X64821428Y-64918392D02*
X64857142Y-64989821D01*
X64857142Y-64989821D02*
X64857142Y-65061250D01*
X64857142Y-65061250D02*
X64821428Y-65168392D01*
X64821428Y-65168392D02*
X64392856Y-65596964D01*
X64392856Y-65596964D02*
X64857142Y-65596964D01*
%TO.C,D2*%
X77696428Y-80846964D02*
X77696428Y-80096964D01*
X77696428Y-80096964D02*
X77874999Y-80096964D01*
X77874999Y-80096964D02*
X77982142Y-80132678D01*
X77982142Y-80132678D02*
X78053571Y-80204107D01*
X78053571Y-80204107D02*
X78089285Y-80275535D01*
X78089285Y-80275535D02*
X78124999Y-80418392D01*
X78124999Y-80418392D02*
X78124999Y-80525535D01*
X78124999Y-80525535D02*
X78089285Y-80668392D01*
X78089285Y-80668392D02*
X78053571Y-80739821D01*
X78053571Y-80739821D02*
X77982142Y-80811250D01*
X77982142Y-80811250D02*
X77874999Y-80846964D01*
X77874999Y-80846964D02*
X77696428Y-80846964D01*
X78410714Y-80168392D02*
X78446428Y-80132678D01*
X78446428Y-80132678D02*
X78517857Y-80096964D01*
X78517857Y-80096964D02*
X78696428Y-80096964D01*
X78696428Y-80096964D02*
X78767857Y-80132678D01*
X78767857Y-80132678D02*
X78803571Y-80168392D01*
X78803571Y-80168392D02*
X78839285Y-80239821D01*
X78839285Y-80239821D02*
X78839285Y-80311250D01*
X78839285Y-80311250D02*
X78803571Y-80418392D01*
X78803571Y-80418392D02*
X78374999Y-80846964D01*
X78374999Y-80846964D02*
X78839285Y-80846964D01*
%TO.C,C1*%
X67874999Y-60025535D02*
X67839285Y-60061250D01*
X67839285Y-60061250D02*
X67732142Y-60096964D01*
X67732142Y-60096964D02*
X67660714Y-60096964D01*
X67660714Y-60096964D02*
X67553571Y-60061250D01*
X67553571Y-60061250D02*
X67482142Y-59989821D01*
X67482142Y-59989821D02*
X67446428Y-59918392D01*
X67446428Y-59918392D02*
X67410714Y-59775535D01*
X67410714Y-59775535D02*
X67410714Y-59668392D01*
X67410714Y-59668392D02*
X67446428Y-59525535D01*
X67446428Y-59525535D02*
X67482142Y-59454107D01*
X67482142Y-59454107D02*
X67553571Y-59382678D01*
X67553571Y-59382678D02*
X67660714Y-59346964D01*
X67660714Y-59346964D02*
X67732142Y-59346964D01*
X67732142Y-59346964D02*
X67839285Y-59382678D01*
X67839285Y-59382678D02*
X67874999Y-59418392D01*
X68589285Y-60096964D02*
X68160714Y-60096964D01*
X68374999Y-60096964D02*
X68374999Y-59346964D01*
X68374999Y-59346964D02*
X68303571Y-59454107D01*
X68303571Y-59454107D02*
X68232142Y-59525535D01*
X68232142Y-59525535D02*
X68160714Y-59561250D01*
%TO.C,R2*%
X80874999Y-74259464D02*
X80624999Y-73902321D01*
X80446428Y-74259464D02*
X80446428Y-73509464D01*
X80446428Y-73509464D02*
X80732142Y-73509464D01*
X80732142Y-73509464D02*
X80803571Y-73545178D01*
X80803571Y-73545178D02*
X80839285Y-73580892D01*
X80839285Y-73580892D02*
X80874999Y-73652321D01*
X80874999Y-73652321D02*
X80874999Y-73759464D01*
X80874999Y-73759464D02*
X80839285Y-73830892D01*
X80839285Y-73830892D02*
X80803571Y-73866607D01*
X80803571Y-73866607D02*
X80732142Y-73902321D01*
X80732142Y-73902321D02*
X80446428Y-73902321D01*
X81160714Y-73580892D02*
X81196428Y-73545178D01*
X81196428Y-73545178D02*
X81267857Y-73509464D01*
X81267857Y-73509464D02*
X81446428Y-73509464D01*
X81446428Y-73509464D02*
X81517857Y-73545178D01*
X81517857Y-73545178D02*
X81553571Y-73580892D01*
X81553571Y-73580892D02*
X81589285Y-73652321D01*
X81589285Y-73652321D02*
X81589285Y-73723750D01*
X81589285Y-73723750D02*
X81553571Y-73830892D01*
X81553571Y-73830892D02*
X81124999Y-74259464D01*
X81124999Y-74259464D02*
X81589285Y-74259464D01*
D11*
%TO.C,J2*%
X78810000Y-83730000D02*
X78810000Y-85000000D01*
X77540000Y-83730000D02*
X78810000Y-83730000D01*
X75380000Y-86042929D02*
X75380000Y-86440000D01*
X74620000Y-86042929D02*
X74620000Y-86440000D01*
X77920000Y-86110000D02*
X77920000Y-86440000D01*
X77160000Y-86110000D02*
X77160000Y-86440000D01*
X78870000Y-86440000D02*
X73670000Y-86440000D01*
X76270000Y-86440000D02*
X76270000Y-89100000D01*
X73670000Y-86440000D02*
X73670000Y-89100000D01*
X78870000Y-89100000D02*
X78870000Y-86440000D01*
X77920000Y-89100000D02*
X77920000Y-95100000D01*
X77860000Y-89100000D02*
X77860000Y-95100000D01*
X77740000Y-89100000D02*
X77740000Y-95100000D01*
X77620000Y-89100000D02*
X77620000Y-95100000D01*
X77500000Y-89100000D02*
X77500000Y-95100000D01*
X77380000Y-89100000D02*
X77380000Y-95100000D01*
X77260000Y-89100000D02*
X77260000Y-95100000D01*
X75380000Y-89100000D02*
X75380000Y-95100000D01*
X73670000Y-89100000D02*
X78870000Y-89100000D01*
X77920000Y-95100000D02*
X77160000Y-95100000D01*
X77160000Y-95100000D02*
X77160000Y-89100000D01*
X75380000Y-95100000D02*
X74620000Y-95100000D01*
X74620000Y-95100000D02*
X74620000Y-89100000D01*
%TO.C,J3*%
X73455000Y-56395000D02*
X73455000Y-55125000D01*
X74725000Y-56395000D02*
X73455000Y-56395000D01*
X76885000Y-54082071D02*
X76885000Y-53685000D01*
X77645000Y-54082071D02*
X77645000Y-53685000D01*
X74345000Y-54015000D02*
X74345000Y-53685000D01*
X75105000Y-54015000D02*
X75105000Y-53685000D01*
X73395000Y-53685000D02*
X78595000Y-53685000D01*
X75995000Y-53685000D02*
X75995000Y-51025000D01*
X78595000Y-53685000D02*
X78595000Y-51025000D01*
X73395000Y-51025000D02*
X73395000Y-53685000D01*
X74345000Y-51025000D02*
X74345000Y-45025000D01*
X74405000Y-51025000D02*
X74405000Y-45025000D01*
X74525000Y-51025000D02*
X74525000Y-45025000D01*
X74645000Y-51025000D02*
X74645000Y-45025000D01*
X74765000Y-51025000D02*
X74765000Y-45025000D01*
X74885000Y-51025000D02*
X74885000Y-45025000D01*
X75005000Y-51025000D02*
X75005000Y-45025000D01*
X76885000Y-51025000D02*
X76885000Y-45025000D01*
X78595000Y-51025000D02*
X73395000Y-51025000D01*
X74345000Y-45025000D02*
X75105000Y-45025000D01*
X75105000Y-45025000D02*
X75105000Y-51025000D01*
X76885000Y-45025000D02*
X77645000Y-45025000D01*
X77645000Y-45025000D02*
X77645000Y-51025000D01*
%TO.C,C8*%
X57603733Y-71490000D02*
X57896267Y-71490000D01*
X57603733Y-72510000D02*
X57896267Y-72510000D01*
%TO.C,C2*%
X58491233Y-76740000D02*
X58783767Y-76740000D01*
X58491233Y-77760000D02*
X58783767Y-77760000D01*
%TO.C,C10*%
X70896267Y-71260000D02*
X70603733Y-71260000D01*
X70896267Y-70240000D02*
X70603733Y-70240000D01*
%TO.C,TP3*%
X89050000Y-60000000D02*
G75*
G03*
X89050000Y-60000000I-1800000J0D01*
G01*
%TO.C,TP5*%
X89050000Y-70000000D02*
G75*
G03*
X89050000Y-70000000I-1800000J0D01*
G01*
%TO.C,C9*%
X70896267Y-69010000D02*
X70603733Y-69010000D01*
X70896267Y-67990000D02*
X70603733Y-67990000D01*
%TO.C,L1*%
X65171267Y-62260000D02*
X64828733Y-62260000D01*
X65171267Y-61240000D02*
X64828733Y-61240000D01*
%TO.C,R1*%
X77022500Y-73657776D02*
X77022500Y-74167224D01*
X75977500Y-73657776D02*
X75977500Y-74167224D01*
%TO.C,C6*%
X69966233Y-82740000D02*
X70258767Y-82740000D01*
X69966233Y-83760000D02*
X70258767Y-83760000D01*
%TO.C,C3*%
X58491233Y-78490000D02*
X58783767Y-78490000D01*
X58491233Y-79510000D02*
X58783767Y-79510000D01*
%TO.C,U1*%
X64362500Y-77190000D02*
X60912500Y-77190000D01*
X64362500Y-77190000D02*
X66312500Y-77190000D01*
X64362500Y-82310000D02*
X62412500Y-82310000D01*
X64362500Y-82310000D02*
X66312500Y-82310000D01*
%TO.C,C5*%
X69966233Y-80990000D02*
X70258767Y-80990000D01*
X69966233Y-82010000D02*
X70258767Y-82010000D01*
%TO.C,C11*%
X73500000Y-67940000D02*
X74000000Y-67940000D01*
X73750000Y-67690000D02*
X73750000Y-68190000D01*
X74240000Y-68304437D02*
X74240000Y-68440000D01*
X74240000Y-68304437D02*
X75304437Y-67240000D01*
X74240000Y-70695563D02*
X74240000Y-70560000D01*
X74240000Y-70695563D02*
X75304437Y-71760000D01*
X75304437Y-67240000D02*
X78760000Y-67240000D01*
X75304437Y-71760000D02*
X78760000Y-71760000D01*
X78760000Y-67240000D02*
X78760000Y-68440000D01*
X78760000Y-71760000D02*
X78760000Y-70560000D01*
D12*
%TO.C,J1*%
X69150000Y-55400000D02*
X69150000Y-54000000D01*
X69150000Y-51600000D02*
X69150000Y-51450000D01*
X69150000Y-51450000D02*
X68850000Y-51450000D01*
X68850000Y-51450000D02*
X68850000Y-51000000D01*
X66800000Y-57575000D02*
X66800000Y-57150000D01*
X66800000Y-57150000D02*
X67800000Y-57150000D01*
X66075000Y-57575000D02*
X66800000Y-57575000D01*
X63200000Y-57150000D02*
X62200000Y-57150000D01*
X61150000Y-51450000D02*
X60850000Y-51450000D01*
X61150000Y-51000000D02*
X61150000Y-51450000D01*
X60850000Y-54000000D02*
X60850000Y-55400000D01*
X60850000Y-51450000D02*
X60850000Y-51600000D01*
D11*
%TO.C,TP2*%
X89050000Y-75000000D02*
G75*
G03*
X89050000Y-75000000I-1800000J0D01*
G01*
%TO.C,TP1*%
X89050000Y-80000000D02*
G75*
G03*
X89050000Y-80000000I-1800000J0D01*
G01*
%TO.C,TP4*%
X89050000Y-65000000D02*
G75*
G03*
X89050000Y-65000000I-1800000J0D01*
G01*
%TO.C,C4*%
X69966233Y-79240000D02*
X70258767Y-79240000D01*
X69966233Y-80260000D02*
X70258767Y-80260000D01*
%TO.C,D1*%
X75765000Y-79035000D02*
X77235000Y-79035000D01*
X77235000Y-79035000D02*
X77235000Y-76575000D01*
X75765000Y-76575000D02*
X75765000Y-79035000D01*
%TO.C,C7*%
X57603733Y-69740000D02*
X57896267Y-69740000D01*
X57603733Y-70760000D02*
X57896267Y-70760000D01*
%TO.C,U2*%
X60150000Y-66340000D02*
X66160000Y-66340000D01*
X62400000Y-73160000D02*
X66160000Y-73160000D01*
X66160000Y-66340000D02*
X66160000Y-67600000D01*
X66160000Y-73160000D02*
X66160000Y-71900000D01*
%TO.C,D2*%
X78515000Y-79035000D02*
X79985000Y-79035000D01*
X79985000Y-79035000D02*
X79985000Y-76575000D01*
X78515000Y-76575000D02*
X78515000Y-79035000D01*
%TO.C,C1*%
X64853733Y-59240000D02*
X65146267Y-59240000D01*
X64853733Y-60260000D02*
X65146267Y-60260000D01*
%TO.C,R2*%
X79772500Y-73657776D02*
X79772500Y-74167224D01*
X78727500Y-73657776D02*
X78727500Y-74167224D01*
%TD*%
M02*
