%TF.GenerationSoftware,KiCad,Pcbnew,7.0.1*%
%TF.CreationDate,2023-05-14T20:32:12+02:00*%
%TF.ProjectId,adr4520_vref,61647234-3532-4305-9f76-7265662e6b69,rev?*%
%TF.SameCoordinates,Original*%
%TF.FileFunction,Copper,L2,Bot*%
%TF.FilePolarity,Positive*%
%FSLAX46Y46*%
G04 Gerber Fmt 4.6, Leading zero omitted, Abs format (unit mm)*
G04 Created by KiCad (PCBNEW 7.0.1) date 2023-05-14 20:32:12*
%MOMM*%
%LPD*%
G01*
G04 APERTURE LIST*
%TA.AperFunction,ComponentPad*%
%ADD10R,1.700000X1.700000*%
%TD*%
%TA.AperFunction,ComponentPad*%
%ADD11O,1.700000X1.700000*%
%TD*%
%TA.AperFunction,ComponentPad*%
%ADD12C,5.600000*%
%TD*%
%TA.AperFunction,ComponentPad*%
%ADD13C,2.800000*%
%TD*%
%TA.AperFunction,ComponentPad*%
%ADD14O,1.150000X1.800000*%
%TD*%
%TA.AperFunction,ComponentPad*%
%ADD15O,1.450000X2.000000*%
%TD*%
%TA.AperFunction,ViaPad*%
%ADD16C,0.700000*%
%TD*%
%TA.AperFunction,Conductor*%
%ADD17C,0.750000*%
%TD*%
G04 APERTURE END LIST*
D10*
%TO.P,J2,1,Pin_1*%
%TO.N,/2V048*%
X77540000Y-85000000D03*
D11*
%TO.P,J2,2,Pin_2*%
%TO.N,GND*%
X75000000Y-85000000D03*
%TD*%
D10*
%TO.P,J3,1,Pin_1*%
%TO.N,VBUS*%
X74725000Y-55125000D03*
D11*
%TO.P,J3,2,Pin_2*%
%TO.N,GND*%
X77265000Y-55125000D03*
%TD*%
D12*
%TO.P,H3,1,1*%
%TO.N,GND*%
X55000000Y-85000000D03*
%TD*%
D13*
%TO.P,TP3,1,1*%
%TO.N,VBUS*%
X87250000Y-60000000D03*
%TD*%
%TO.P,TP5,1,1*%
%TO.N,+3V3*%
X87250000Y-70000000D03*
%TD*%
D12*
%TO.P,H2,1,1*%
%TO.N,GND*%
X85000000Y-55000000D03*
%TD*%
D14*
%TO.P,J1,6,Shield*%
%TO.N,GND*%
X68875000Y-52800000D03*
D15*
X68725000Y-56600000D03*
X61275000Y-56600000D03*
D14*
X61125000Y-52800000D03*
%TD*%
D13*
%TO.P,TP2,1,1*%
%TO.N,GND*%
X87250000Y-75000000D03*
%TD*%
%TO.P,TP1,1,1*%
%TO.N,/2V048*%
X87250000Y-80000000D03*
%TD*%
%TO.P,TP4,1,1*%
%TO.N,GND*%
X87250000Y-65000000D03*
%TD*%
D12*
%TO.P,H1,1,1*%
%TO.N,GND*%
X55000000Y-55000000D03*
%TD*%
%TO.P,H4,1,1*%
%TO.N,GND*%
X85000000Y-85000000D03*
%TD*%
D16*
%TO.N,GND*%
X72000000Y-83250000D03*
X79250000Y-79250000D03*
X56750000Y-79000000D03*
X63000000Y-59750000D03*
X61000000Y-66250000D03*
X71000000Y-80750000D03*
X57750000Y-76250000D03*
X63900000Y-55200000D03*
X71750000Y-69250000D03*
X56750000Y-69500000D03*
X60500000Y-81750000D03*
X78250000Y-70750000D03*
X71000000Y-79000000D03*
X63000000Y-58500000D03*
X63250000Y-81750000D03*
X56750000Y-77250000D03*
X71000000Y-84000000D03*
X56000000Y-72000000D03*
X76500000Y-79250000D03*
X59750000Y-67500000D03*
X62500000Y-67500000D03*
X56750000Y-72750000D03*
X71500000Y-71750000D03*
X72500000Y-70750000D03*
X71750000Y-67799500D03*
X56000000Y-70250000D03*
X72000000Y-81500000D03*
X78250000Y-68250000D03*
X57750000Y-80000000D03*
X64250000Y-58500000D03*
X72000000Y-79750000D03*
%TO.N,VBUS*%
X66000000Y-55250000D03*
X65900000Y-58500000D03*
%TD*%
D17*
%TO.N,VBUS*%
X66000000Y-58400000D02*
X65900000Y-58500000D01*
X66000000Y-55250000D02*
X66000000Y-58400000D01*
%TD*%
%TA.AperFunction,Conductor*%
%TO.N,GND*%
G36*
X60603036Y-51318313D02*
G01*
X60648673Y-51366633D01*
X60662801Y-51431579D01*
X60641362Y-51494491D01*
X60590515Y-51537294D01*
X60585053Y-51539788D01*
X60417824Y-51658872D01*
X60276146Y-51807459D01*
X60165157Y-51980162D01*
X60088852Y-52170762D01*
X60050000Y-52372350D01*
X60050000Y-52550000D01*
X62200000Y-52550000D01*
X62200000Y-52423794D01*
X62185374Y-52270626D01*
X62127535Y-52073646D01*
X62033459Y-51891163D01*
X61906554Y-51729792D01*
X61751396Y-51595346D01*
X61641480Y-51531887D01*
X61596093Y-51486500D01*
X61579480Y-51424500D01*
X61596093Y-51362500D01*
X61641480Y-51317113D01*
X61703480Y-51300500D01*
X68289003Y-51300500D01*
X68353036Y-51318313D01*
X68398673Y-51366633D01*
X68412801Y-51431579D01*
X68391362Y-51494491D01*
X68340515Y-51537294D01*
X68335053Y-51539788D01*
X68167824Y-51658872D01*
X68026146Y-51807459D01*
X67915157Y-51980162D01*
X67838852Y-52170762D01*
X67800000Y-52372350D01*
X67800000Y-52550000D01*
X69950000Y-52550000D01*
X69950000Y-52493703D01*
X82847255Y-52493703D01*
X85000000Y-54646447D01*
X85000001Y-54646447D01*
X87152743Y-52493703D01*
X87152742Y-52493702D01*
X87139514Y-52481171D01*
X86854636Y-52264613D01*
X86548015Y-52080126D01*
X86223253Y-51929875D01*
X85884140Y-51815614D01*
X85534664Y-51738689D01*
X85178922Y-51700000D01*
X84821078Y-51700000D01*
X84465335Y-51738689D01*
X84115859Y-51815614D01*
X83776746Y-51929875D01*
X83451984Y-52080126D01*
X83145363Y-52264613D01*
X82860486Y-52481170D01*
X82847256Y-52493702D01*
X82847255Y-52493703D01*
X69950000Y-52493703D01*
X69950000Y-52423794D01*
X69935374Y-52270626D01*
X69877535Y-52073646D01*
X69783459Y-51891163D01*
X69656554Y-51729792D01*
X69501396Y-51595346D01*
X69391480Y-51531887D01*
X69346093Y-51486500D01*
X69329480Y-51424500D01*
X69346093Y-51362500D01*
X69391480Y-51317113D01*
X69453480Y-51300500D01*
X88575500Y-51300500D01*
X88637500Y-51317113D01*
X88682887Y-51362500D01*
X88699500Y-51424500D01*
X88699500Y-58463343D01*
X88680995Y-58528510D01*
X88631004Y-58574227D01*
X88564447Y-58586849D01*
X88501189Y-58562610D01*
X88497744Y-58560031D01*
X88497742Y-58560029D01*
X88280113Y-58397113D01*
X88280114Y-58397113D01*
X88280108Y-58397109D01*
X88041519Y-58266831D01*
X88041517Y-58266830D01*
X88041513Y-58266828D01*
X87786801Y-58171825D01*
X87786796Y-58171823D01*
X87521161Y-58114039D01*
X87250000Y-58094644D01*
X86978838Y-58114039D01*
X86713203Y-58171823D01*
X86568956Y-58225624D01*
X86458487Y-58266828D01*
X86458484Y-58266829D01*
X86458480Y-58266831D01*
X86219891Y-58397109D01*
X86002255Y-58560031D01*
X85810031Y-58752255D01*
X85647109Y-58969891D01*
X85516831Y-59208480D01*
X85421823Y-59463203D01*
X85364039Y-59728838D01*
X85344644Y-60000000D01*
X85364039Y-60271161D01*
X85421823Y-60536796D01*
X85421825Y-60536801D01*
X85516828Y-60791513D01*
X85516830Y-60791517D01*
X85516831Y-60791519D01*
X85647109Y-61030108D01*
X85647113Y-61030113D01*
X85810029Y-61247742D01*
X86002258Y-61439971D01*
X86131415Y-61536657D01*
X86219891Y-61602890D01*
X86415802Y-61709864D01*
X86458487Y-61733172D01*
X86713199Y-61828175D01*
X86713202Y-61828175D01*
X86713203Y-61828176D01*
X86762852Y-61838976D01*
X86978840Y-61885961D01*
X87250000Y-61905355D01*
X87521160Y-61885961D01*
X87786801Y-61828175D01*
X88041513Y-61733172D01*
X88280113Y-61602887D01*
X88497742Y-61439971D01*
X88497744Y-61439968D01*
X88501189Y-61437390D01*
X88564447Y-61413151D01*
X88631004Y-61425773D01*
X88680995Y-61471490D01*
X88699500Y-61536657D01*
X88699500Y-63463968D01*
X88680995Y-63529135D01*
X88631005Y-63574852D01*
X88564448Y-63587474D01*
X88501190Y-63563235D01*
X88279842Y-63397536D01*
X88041307Y-63267287D01*
X87786654Y-63172305D01*
X87521089Y-63114536D01*
X87250000Y-63095146D01*
X86978910Y-63114536D01*
X86713345Y-63172305D01*
X86458692Y-63267286D01*
X86220162Y-63397534D01*
X86094875Y-63491321D01*
X87250000Y-64646447D01*
X87515871Y-64912318D01*
X87547965Y-64967905D01*
X87547965Y-65032093D01*
X87515871Y-65087680D01*
X86094874Y-66508677D01*
X86094875Y-66508678D01*
X86220157Y-66602463D01*
X86458692Y-66732712D01*
X86713345Y-66827694D01*
X86978910Y-66885463D01*
X87250000Y-66904853D01*
X87521089Y-66885463D01*
X87786654Y-66827694D01*
X88041307Y-66732712D01*
X88279842Y-66602463D01*
X88501190Y-66436765D01*
X88564448Y-66412526D01*
X88631005Y-66425148D01*
X88680995Y-66470865D01*
X88699500Y-66536032D01*
X88699500Y-68463343D01*
X88680995Y-68528510D01*
X88631004Y-68574227D01*
X88564447Y-68586849D01*
X88501189Y-68562610D01*
X88497744Y-68560031D01*
X88497742Y-68560029D01*
X88280113Y-68397113D01*
X88280114Y-68397113D01*
X88280108Y-68397109D01*
X88041519Y-68266831D01*
X88041517Y-68266830D01*
X88041513Y-68266828D01*
X87786801Y-68171825D01*
X87786796Y-68171823D01*
X87521161Y-68114039D01*
X87250000Y-68094644D01*
X86978838Y-68114039D01*
X86713203Y-68171823D01*
X86568956Y-68225624D01*
X86458487Y-68266828D01*
X86458484Y-68266829D01*
X86458480Y-68266831D01*
X86219891Y-68397109D01*
X86002255Y-68560031D01*
X85810031Y-68752255D01*
X85647109Y-68969891D01*
X85516831Y-69208480D01*
X85421823Y-69463203D01*
X85364039Y-69728838D01*
X85344644Y-69999999D01*
X85364039Y-70271161D01*
X85421823Y-70536796D01*
X85421825Y-70536801D01*
X85516828Y-70791513D01*
X85516830Y-70791517D01*
X85516831Y-70791519D01*
X85647109Y-71030108D01*
X85647113Y-71030113D01*
X85810029Y-71247742D01*
X86002258Y-71439971D01*
X86131415Y-71536657D01*
X86219891Y-71602890D01*
X86415802Y-71709864D01*
X86458487Y-71733172D01*
X86713199Y-71828175D01*
X86713202Y-71828175D01*
X86713203Y-71828176D01*
X86762852Y-71838976D01*
X86978840Y-71885961D01*
X87250000Y-71905355D01*
X87521160Y-71885961D01*
X87786801Y-71828175D01*
X88041513Y-71733172D01*
X88280113Y-71602887D01*
X88497742Y-71439971D01*
X88497744Y-71439968D01*
X88501189Y-71437390D01*
X88564447Y-71413151D01*
X88631004Y-71425773D01*
X88680995Y-71471490D01*
X88699500Y-71536657D01*
X88699500Y-73463968D01*
X88680995Y-73529135D01*
X88631005Y-73574852D01*
X88564448Y-73587474D01*
X88501190Y-73563235D01*
X88279842Y-73397536D01*
X88041307Y-73267287D01*
X87786654Y-73172305D01*
X87521089Y-73114536D01*
X87250000Y-73095146D01*
X86978910Y-73114536D01*
X86713345Y-73172305D01*
X86458692Y-73267286D01*
X86220162Y-73397534D01*
X86094875Y-73491321D01*
X87250000Y-74646447D01*
X87515871Y-74912318D01*
X87547965Y-74967905D01*
X87547965Y-75032093D01*
X87515871Y-75087680D01*
X86094874Y-76508677D01*
X86094875Y-76508678D01*
X86220157Y-76602463D01*
X86458692Y-76732712D01*
X86713345Y-76827694D01*
X86978910Y-76885463D01*
X87250000Y-76904853D01*
X87521089Y-76885463D01*
X87786654Y-76827694D01*
X88041307Y-76732712D01*
X88279842Y-76602463D01*
X88501190Y-76436765D01*
X88564448Y-76412526D01*
X88631005Y-76425148D01*
X88680995Y-76470865D01*
X88699500Y-76536032D01*
X88699500Y-78463343D01*
X88680995Y-78528510D01*
X88631004Y-78574227D01*
X88564447Y-78586849D01*
X88501189Y-78562610D01*
X88497744Y-78560031D01*
X88497742Y-78560029D01*
X88280113Y-78397113D01*
X88280114Y-78397113D01*
X88280108Y-78397109D01*
X88041519Y-78266831D01*
X88041517Y-78266830D01*
X88041513Y-78266828D01*
X87786801Y-78171825D01*
X87786796Y-78171823D01*
X87521161Y-78114039D01*
X87250000Y-78094644D01*
X86978838Y-78114039D01*
X86713203Y-78171823D01*
X86568956Y-78225624D01*
X86458487Y-78266828D01*
X86458484Y-78266829D01*
X86458480Y-78266831D01*
X86219891Y-78397109D01*
X86002255Y-78560031D01*
X85810031Y-78752255D01*
X85647109Y-78969891D01*
X85516831Y-79208480D01*
X85421823Y-79463203D01*
X85364039Y-79728838D01*
X85344644Y-80000000D01*
X85364039Y-80271161D01*
X85421823Y-80536796D01*
X85421825Y-80536801D01*
X85516828Y-80791513D01*
X85516830Y-80791517D01*
X85516831Y-80791519D01*
X85647109Y-81030108D01*
X85647113Y-81030113D01*
X85810029Y-81247742D01*
X86002258Y-81439971D01*
X86131415Y-81536657D01*
X86219891Y-81602890D01*
X86397737Y-81700000D01*
X86458487Y-81733172D01*
X86713199Y-81828175D01*
X86713202Y-81828175D01*
X86713203Y-81828176D01*
X86762852Y-81838976D01*
X86978840Y-81885961D01*
X87250000Y-81905355D01*
X87521160Y-81885961D01*
X87786801Y-81828175D01*
X88041513Y-81733172D01*
X88280113Y-81602887D01*
X88497742Y-81439971D01*
X88497744Y-81439968D01*
X88501189Y-81437390D01*
X88564447Y-81413151D01*
X88631004Y-81425773D01*
X88680995Y-81471490D01*
X88699500Y-81536657D01*
X88699500Y-88575500D01*
X88682887Y-88637500D01*
X88637500Y-88682887D01*
X88575500Y-88699500D01*
X51424500Y-88699500D01*
X51362500Y-88682887D01*
X51317113Y-88637500D01*
X51300500Y-88575500D01*
X51300500Y-87506295D01*
X52847255Y-87506295D01*
X52847256Y-87506296D01*
X52860485Y-87518828D01*
X53145363Y-87735386D01*
X53451984Y-87919873D01*
X53776746Y-88070124D01*
X54115859Y-88184385D01*
X54465335Y-88261310D01*
X54821078Y-88300000D01*
X55178922Y-88300000D01*
X55534664Y-88261310D01*
X55884140Y-88184385D01*
X56223253Y-88070124D01*
X56548015Y-87919873D01*
X56854636Y-87735386D01*
X57139515Y-87518827D01*
X57152742Y-87506297D01*
X57152743Y-87506295D01*
X82847255Y-87506295D01*
X82847256Y-87506296D01*
X82860485Y-87518828D01*
X83145363Y-87735386D01*
X83451984Y-87919873D01*
X83776746Y-88070124D01*
X84115859Y-88184385D01*
X84465335Y-88261310D01*
X84821078Y-88300000D01*
X85178922Y-88300000D01*
X85534664Y-88261310D01*
X85884140Y-88184385D01*
X86223253Y-88070124D01*
X86548015Y-87919873D01*
X86854636Y-87735386D01*
X87139515Y-87518827D01*
X87152742Y-87506297D01*
X87152743Y-87506295D01*
X85000000Y-85353553D01*
X82847255Y-87506295D01*
X57152743Y-87506295D01*
X55000000Y-85353553D01*
X52847255Y-87506295D01*
X51300500Y-87506295D01*
X51300500Y-84999999D01*
X51695152Y-84999999D01*
X51714525Y-85357310D01*
X51772419Y-85710451D01*
X51868149Y-86055241D01*
X52000601Y-86387670D01*
X52168218Y-86703829D01*
X52369031Y-87000004D01*
X52496441Y-87150003D01*
X52496442Y-87150004D01*
X54646447Y-85000001D01*
X54646447Y-85000000D01*
X55353553Y-85000000D01*
X57503556Y-87150003D01*
X57630968Y-87000004D01*
X57831781Y-86703829D01*
X57999398Y-86387670D01*
X58131850Y-86055241D01*
X58227580Y-85710451D01*
X58285474Y-85357310D01*
X58291292Y-85250000D01*
X73669364Y-85250000D01*
X73726569Y-85463492D01*
X73826399Y-85677576D01*
X73961893Y-85871081D01*
X74128918Y-86038106D01*
X74322423Y-86173600D01*
X74536507Y-86273430D01*
X74749999Y-86330635D01*
X74750000Y-86330636D01*
X74750000Y-86330635D01*
X75250000Y-86330635D01*
X75463492Y-86273430D01*
X75677576Y-86173600D01*
X75871077Y-86038109D01*
X75993133Y-85916053D01*
X76045880Y-85884757D01*
X76107173Y-85882568D01*
X76162018Y-85910021D01*
X76196996Y-85960399D01*
X76246204Y-86092331D01*
X76332454Y-86207546D01*
X76447669Y-86293796D01*
X76582517Y-86344091D01*
X76642127Y-86350500D01*
X78437872Y-86350499D01*
X78497483Y-86344091D01*
X78632331Y-86293796D01*
X78747546Y-86207546D01*
X78833796Y-86092331D01*
X78884091Y-85957483D01*
X78890500Y-85897873D01*
X78890499Y-84999999D01*
X81695152Y-84999999D01*
X81714525Y-85357310D01*
X81772419Y-85710451D01*
X81868149Y-86055241D01*
X82000601Y-86387670D01*
X82168218Y-86703829D01*
X82369031Y-87000004D01*
X82496441Y-87150003D01*
X82496442Y-87150004D01*
X84646447Y-85000001D01*
X85353553Y-85000001D01*
X87503556Y-87150003D01*
X87630968Y-87000004D01*
X87831781Y-86703829D01*
X87999398Y-86387670D01*
X88131850Y-86055241D01*
X88227580Y-85710451D01*
X88285474Y-85357310D01*
X88304847Y-84999999D01*
X88285474Y-84642689D01*
X88227580Y-84289548D01*
X88131850Y-83944758D01*
X87999398Y-83612329D01*
X87831781Y-83296170D01*
X87630968Y-82999995D01*
X87503557Y-82849995D01*
X87503556Y-82849994D01*
X85353553Y-84999999D01*
X85353553Y-85000001D01*
X84646447Y-85000001D01*
X84646447Y-84999999D01*
X82496442Y-82849994D01*
X82496441Y-82849995D01*
X82369030Y-82999995D01*
X82168218Y-83296170D01*
X82000601Y-83612329D01*
X81868149Y-83944758D01*
X81772419Y-84289548D01*
X81714525Y-84642689D01*
X81695152Y-84999999D01*
X78890499Y-84999999D01*
X78890499Y-84102128D01*
X78884091Y-84042517D01*
X78833796Y-83907669D01*
X78747546Y-83792454D01*
X78632331Y-83706204D01*
X78497483Y-83655909D01*
X78437873Y-83649500D01*
X78437869Y-83649500D01*
X76642130Y-83649500D01*
X76582515Y-83655909D01*
X76447669Y-83706204D01*
X76332454Y-83792454D01*
X76246204Y-83907669D01*
X76196997Y-84039599D01*
X76162018Y-84089978D01*
X76107173Y-84117431D01*
X76045880Y-84115242D01*
X75993134Y-84083946D01*
X75871081Y-83961893D01*
X75677576Y-83826399D01*
X75463492Y-83726569D01*
X75250000Y-83669364D01*
X75250000Y-86330635D01*
X74750000Y-86330635D01*
X74750000Y-85250000D01*
X73669364Y-85250000D01*
X58291292Y-85250000D01*
X58304847Y-84999999D01*
X58291292Y-84750000D01*
X73669364Y-84750000D01*
X74750000Y-84750000D01*
X74750000Y-83669364D01*
X74749999Y-83669364D01*
X74536507Y-83726569D01*
X74322421Y-83826400D01*
X74128921Y-83961890D01*
X73961890Y-84128921D01*
X73826400Y-84322421D01*
X73726569Y-84536507D01*
X73669364Y-84749999D01*
X73669364Y-84750000D01*
X58291292Y-84750000D01*
X58285474Y-84642689D01*
X58227580Y-84289548D01*
X58131850Y-83944758D01*
X57999398Y-83612329D01*
X57831781Y-83296170D01*
X57630968Y-82999995D01*
X57503557Y-82849995D01*
X57503556Y-82849994D01*
X55353553Y-85000000D01*
X54646447Y-85000000D01*
X52496442Y-82849994D01*
X52496441Y-82849995D01*
X52369030Y-82999995D01*
X52168218Y-83296170D01*
X52000601Y-83612329D01*
X51868149Y-83944758D01*
X51772419Y-84289548D01*
X51714525Y-84642689D01*
X51695152Y-84999999D01*
X51300500Y-84999999D01*
X51300500Y-82493703D01*
X52847255Y-82493703D01*
X55000000Y-84646447D01*
X55000001Y-84646447D01*
X57152743Y-82493703D01*
X82847255Y-82493703D01*
X85000000Y-84646447D01*
X85000001Y-84646447D01*
X87152743Y-82493703D01*
X87152742Y-82493702D01*
X87139514Y-82481171D01*
X86854636Y-82264613D01*
X86548015Y-82080126D01*
X86223253Y-81929875D01*
X85884140Y-81815614D01*
X85534664Y-81738689D01*
X85178922Y-81700000D01*
X84821078Y-81700000D01*
X84465335Y-81738689D01*
X84115859Y-81815614D01*
X83776746Y-81929875D01*
X83451984Y-82080126D01*
X83145363Y-82264613D01*
X82860486Y-82481170D01*
X82847256Y-82493702D01*
X82847255Y-82493703D01*
X57152743Y-82493703D01*
X57152742Y-82493702D01*
X57139514Y-82481171D01*
X56854636Y-82264613D01*
X56548015Y-82080126D01*
X56223253Y-81929875D01*
X55884140Y-81815614D01*
X55534664Y-81738689D01*
X55178922Y-81700000D01*
X54821078Y-81700000D01*
X54465335Y-81738689D01*
X54115859Y-81815614D01*
X53776746Y-81929875D01*
X53451984Y-82080126D01*
X53145363Y-82264613D01*
X52860486Y-82481170D01*
X52847256Y-82493702D01*
X52847255Y-82493703D01*
X51300500Y-82493703D01*
X51300500Y-74999999D01*
X85345146Y-74999999D01*
X85364536Y-75271089D01*
X85422305Y-75536654D01*
X85517287Y-75791307D01*
X85647536Y-76029842D01*
X85741320Y-76155124D01*
X85741321Y-76155124D01*
X86896446Y-75000001D01*
X86896446Y-74999999D01*
X85741321Y-73844875D01*
X85647534Y-73970162D01*
X85517286Y-74208692D01*
X85422305Y-74463345D01*
X85364536Y-74728910D01*
X85345146Y-74999999D01*
X51300500Y-74999999D01*
X51300500Y-65000000D01*
X85345146Y-65000000D01*
X85364536Y-65271089D01*
X85422305Y-65536654D01*
X85517287Y-65791307D01*
X85647536Y-66029842D01*
X85741320Y-66155124D01*
X86896446Y-65000000D01*
X86896446Y-64999998D01*
X85741321Y-63844875D01*
X85647534Y-63970162D01*
X85517286Y-64208692D01*
X85422305Y-64463345D01*
X85364536Y-64728910D01*
X85345146Y-65000000D01*
X51300500Y-65000000D01*
X51300500Y-58500000D01*
X65044815Y-58500000D01*
X65063503Y-58677804D01*
X65118749Y-58847835D01*
X65208140Y-59002665D01*
X65327771Y-59135527D01*
X65472403Y-59240610D01*
X65635735Y-59313330D01*
X65810607Y-59350500D01*
X65810609Y-59350500D01*
X65989391Y-59350500D01*
X65989393Y-59350500D01*
X66164264Y-59313330D01*
X66164265Y-59313329D01*
X66164267Y-59313329D01*
X66327593Y-59240612D01*
X66472230Y-59135526D01*
X66591859Y-59002665D01*
X66681250Y-58847835D01*
X66736497Y-58677803D01*
X66755185Y-58500000D01*
X66736497Y-58322197D01*
X66687638Y-58171825D01*
X66681250Y-58152164D01*
X66591859Y-57997334D01*
X66496250Y-57891150D01*
X66472636Y-57852616D01*
X66464400Y-57808178D01*
X66464400Y-56850000D01*
X67500000Y-56850000D01*
X67500000Y-56930007D01*
X67514816Y-57094620D01*
X67573476Y-57307173D01*
X67669147Y-57505838D01*
X67798761Y-57684233D01*
X67958137Y-57836614D01*
X68142164Y-57958088D01*
X68344923Y-58044753D01*
X68474999Y-58074442D01*
X68475000Y-58074442D01*
X68475000Y-56850000D01*
X68975000Y-56850000D01*
X68975000Y-58077322D01*
X68998689Y-58074114D01*
X69208401Y-58005973D01*
X69402576Y-57901482D01*
X69574973Y-57764001D01*
X69720051Y-57597946D01*
X69774810Y-57506295D01*
X82847255Y-57506295D01*
X82847256Y-57506296D01*
X82860485Y-57518828D01*
X83145363Y-57735386D01*
X83451984Y-57919873D01*
X83776746Y-58070124D01*
X84115859Y-58184385D01*
X84465335Y-58261310D01*
X84821078Y-58300000D01*
X85178922Y-58300000D01*
X85534664Y-58261310D01*
X85884140Y-58184385D01*
X86223253Y-58070124D01*
X86548015Y-57919873D01*
X86854636Y-57735386D01*
X87139515Y-57518827D01*
X87152742Y-57506297D01*
X87152743Y-57506295D01*
X85000000Y-55353553D01*
X82847255Y-57506295D01*
X69774810Y-57506295D01*
X69833148Y-57408655D01*
X69910627Y-57202212D01*
X69950000Y-56985253D01*
X69950000Y-56850000D01*
X68975000Y-56850000D01*
X68475000Y-56850000D01*
X67500000Y-56850000D01*
X66464400Y-56850000D01*
X66464400Y-56027051D01*
X66477912Y-55970762D01*
X66515504Y-55926741D01*
X66517425Y-55925345D01*
X66567714Y-55903733D01*
X66622408Y-55905879D01*
X66670850Y-55931363D01*
X66703601Y-55975220D01*
X66715849Y-56002731D01*
X66739918Y-56035860D01*
X66746984Y-56046740D01*
X66767467Y-56082216D01*
X66794867Y-56112647D01*
X66794877Y-56112657D01*
X66803041Y-56122739D01*
X66827112Y-56155871D01*
X66857544Y-56183272D01*
X66866715Y-56192442D01*
X66894129Y-56222888D01*
X66894130Y-56222889D01*
X66927258Y-56246957D01*
X66937347Y-56255127D01*
X66967781Y-56282531D01*
X66967783Y-56282532D01*
X66967784Y-56282533D01*
X67003266Y-56303019D01*
X67014136Y-56310078D01*
X67047270Y-56334151D01*
X67084683Y-56350808D01*
X67096239Y-56356696D01*
X67131716Y-56377179D01*
X67170666Y-56389834D01*
X67182778Y-56394483D01*
X67220197Y-56411144D01*
X67260267Y-56419660D01*
X67272782Y-56423014D01*
X67311744Y-56435674D01*
X67352485Y-56439955D01*
X67365294Y-56441985D01*
X67405354Y-56450500D01*
X67452808Y-56450500D01*
X67594643Y-56450500D01*
X67594646Y-56450500D01*
X67634726Y-56441980D01*
X67647503Y-56439956D01*
X67688256Y-56435674D01*
X67727220Y-56423012D01*
X67739741Y-56419658D01*
X67765860Y-56414107D01*
X67779799Y-56411145D01*
X67779799Y-56411144D01*
X67779803Y-56411144D01*
X67817234Y-56394477D01*
X67829324Y-56389836D01*
X67868284Y-56377179D01*
X67886583Y-56366613D01*
X67948584Y-56350000D01*
X68475000Y-56350000D01*
X68475000Y-55125557D01*
X68975000Y-55125557D01*
X68975000Y-56350000D01*
X69950000Y-56350000D01*
X69950000Y-56269993D01*
X69935183Y-56105379D01*
X69912412Y-56022869D01*
X73374500Y-56022869D01*
X73380909Y-56082484D01*
X73392159Y-56112647D01*
X73431204Y-56217331D01*
X73517454Y-56332546D01*
X73632669Y-56418796D01*
X73767517Y-56469091D01*
X73827127Y-56475500D01*
X75622872Y-56475499D01*
X75682483Y-56469091D01*
X75817331Y-56418796D01*
X75932546Y-56332546D01*
X76018796Y-56217331D01*
X76068003Y-56085398D01*
X76102981Y-56035021D01*
X76157826Y-56007568D01*
X76219119Y-56009757D01*
X76271865Y-56041053D01*
X76393918Y-56163106D01*
X76587423Y-56298600D01*
X76801507Y-56398430D01*
X77014999Y-56455635D01*
X77015000Y-56455636D01*
X77015000Y-55375000D01*
X77515000Y-55375000D01*
X77515000Y-56455635D01*
X77728492Y-56398430D01*
X77942576Y-56298600D01*
X78136081Y-56163106D01*
X78303106Y-55996081D01*
X78438600Y-55802576D01*
X78538430Y-55588492D01*
X78595636Y-55375000D01*
X77515000Y-55375000D01*
X77015000Y-55375000D01*
X77015000Y-55000000D01*
X81695152Y-55000000D01*
X81714525Y-55357310D01*
X81772419Y-55710451D01*
X81868149Y-56055241D01*
X82000601Y-56387670D01*
X82168218Y-56703829D01*
X82369031Y-57000004D01*
X82496441Y-57150003D01*
X82496442Y-57150004D01*
X84646447Y-55000001D01*
X85353553Y-55000001D01*
X87503556Y-57150003D01*
X87630968Y-57000004D01*
X87831781Y-56703829D01*
X87999398Y-56387670D01*
X88131850Y-56055241D01*
X88227580Y-55710451D01*
X88285474Y-55357310D01*
X88304847Y-55000000D01*
X88285474Y-54642689D01*
X88227580Y-54289548D01*
X88131850Y-53944758D01*
X87999398Y-53612329D01*
X87831781Y-53296170D01*
X87630968Y-52999995D01*
X87503557Y-52849995D01*
X87503556Y-52849994D01*
X85353553Y-54999999D01*
X85353553Y-55000001D01*
X84646447Y-55000001D01*
X84646447Y-54999999D01*
X82496442Y-52849994D01*
X82496441Y-52849995D01*
X82369030Y-52999995D01*
X82168218Y-53296170D01*
X82000601Y-53612329D01*
X81868149Y-53944758D01*
X81772419Y-54289548D01*
X81714525Y-54642689D01*
X81695152Y-55000000D01*
X77015000Y-55000000D01*
X77015000Y-53794364D01*
X77515000Y-53794364D01*
X77515000Y-54875000D01*
X78595636Y-54875000D01*
X78595635Y-54874999D01*
X78538430Y-54661507D01*
X78438599Y-54447421D01*
X78303109Y-54253921D01*
X78136081Y-54086893D01*
X77942576Y-53951399D01*
X77728492Y-53851569D01*
X77515000Y-53794364D01*
X77015000Y-53794364D01*
X77014999Y-53794364D01*
X76801507Y-53851569D01*
X76587421Y-53951400D01*
X76393924Y-54086888D01*
X76271865Y-54208947D01*
X76219118Y-54240242D01*
X76157825Y-54242431D01*
X76102981Y-54214978D01*
X76068002Y-54164598D01*
X76060877Y-54145495D01*
X76018796Y-54032669D01*
X75932546Y-53917454D01*
X75817331Y-53831204D01*
X75682483Y-53780909D01*
X75622873Y-53774500D01*
X75622869Y-53774500D01*
X73827130Y-53774500D01*
X73767515Y-53780909D01*
X73632669Y-53831204D01*
X73517454Y-53917454D01*
X73431204Y-54032668D01*
X73380909Y-54167516D01*
X73374500Y-54227130D01*
X73374500Y-56022869D01*
X69912412Y-56022869D01*
X69876523Y-55892826D01*
X69780852Y-55694161D01*
X69651238Y-55515766D01*
X69491862Y-55363385D01*
X69307835Y-55241911D01*
X69105076Y-55155246D01*
X68975000Y-55125557D01*
X68475000Y-55125557D01*
X68475000Y-55122678D01*
X68474999Y-55122677D01*
X68451311Y-55125885D01*
X68418575Y-55136522D01*
X68367294Y-55141910D01*
X68318256Y-55125976D01*
X68279941Y-55091476D01*
X68260075Y-55064131D01*
X68253015Y-55053260D01*
X68232531Y-55017781D01*
X68205127Y-54987347D01*
X68196957Y-54977258D01*
X68172889Y-54944130D01*
X68172887Y-54944128D01*
X68142442Y-54916715D01*
X68133274Y-54907546D01*
X68105871Y-54877112D01*
X68096785Y-54870511D01*
X68084164Y-54861341D01*
X68072739Y-54853041D01*
X68062662Y-54844881D01*
X68032216Y-54817467D01*
X68032215Y-54817466D01*
X67996740Y-54796984D01*
X67985860Y-54789918D01*
X67952732Y-54765850D01*
X67952728Y-54765848D01*
X67915308Y-54749187D01*
X67903755Y-54743300D01*
X67868284Y-54722821D01*
X67829331Y-54710164D01*
X67817213Y-54705512D01*
X67779805Y-54688856D01*
X67758011Y-54684224D01*
X67739739Y-54680340D01*
X67727209Y-54676982D01*
X67688255Y-54664325D01*
X67647519Y-54660043D01*
X67634706Y-54658014D01*
X67594646Y-54649500D01*
X67405354Y-54649500D01*
X67405351Y-54649500D01*
X67365292Y-54658013D01*
X67352483Y-54660042D01*
X67311744Y-54664325D01*
X67272794Y-54676981D01*
X67260258Y-54680340D01*
X67220198Y-54688854D01*
X67182780Y-54705514D01*
X67170668Y-54710163D01*
X67131715Y-54722820D01*
X67096241Y-54743301D01*
X67084681Y-54749191D01*
X67047270Y-54765848D01*
X67014137Y-54789919D01*
X67003260Y-54796983D01*
X66967782Y-54817467D01*
X66937347Y-54844871D01*
X66927265Y-54853036D01*
X66915835Y-54861341D01*
X66851599Y-54884723D01*
X66784733Y-54870511D01*
X66735559Y-54823025D01*
X66691859Y-54747334D01*
X66572228Y-54614472D01*
X66427596Y-54509389D01*
X66264264Y-54436669D01*
X66089393Y-54399500D01*
X66089391Y-54399500D01*
X65910609Y-54399500D01*
X65910607Y-54399500D01*
X65735735Y-54436669D01*
X65572408Y-54509387D01*
X65427768Y-54614474D01*
X65308140Y-54747334D01*
X65218749Y-54902164D01*
X65163503Y-55072195D01*
X65144815Y-55249999D01*
X65163503Y-55427804D01*
X65218749Y-55597835D01*
X65308140Y-55752665D01*
X65411273Y-55867204D01*
X65427770Y-55885526D01*
X65455783Y-55905879D01*
X65484487Y-55926734D01*
X65522085Y-55970757D01*
X65535600Y-56027051D01*
X65535600Y-57650726D01*
X65526571Y-57697177D01*
X65500799Y-57736863D01*
X65481812Y-57750158D01*
X65482952Y-57751727D01*
X65327768Y-57864474D01*
X65208140Y-57997334D01*
X65118749Y-58152164D01*
X65063503Y-58322195D01*
X65044815Y-58500000D01*
X51300500Y-58500000D01*
X51300500Y-57506295D01*
X52847255Y-57506295D01*
X52847256Y-57506296D01*
X52860485Y-57518828D01*
X53145363Y-57735386D01*
X53451984Y-57919873D01*
X53776746Y-58070124D01*
X54115859Y-58184385D01*
X54465335Y-58261310D01*
X54821078Y-58300000D01*
X55178922Y-58300000D01*
X55534664Y-58261310D01*
X55884140Y-58184385D01*
X56223253Y-58070124D01*
X56548015Y-57919873D01*
X56854636Y-57735386D01*
X57139515Y-57518827D01*
X57152742Y-57506297D01*
X57152743Y-57506295D01*
X55000000Y-55353553D01*
X52847255Y-57506295D01*
X51300500Y-57506295D01*
X51300500Y-54999999D01*
X51695152Y-54999999D01*
X51714525Y-55357310D01*
X51772419Y-55710451D01*
X51868149Y-56055241D01*
X52000601Y-56387670D01*
X52168218Y-56703829D01*
X52369031Y-57000004D01*
X52496441Y-57150003D01*
X52496442Y-57150004D01*
X54646447Y-55000001D01*
X54646447Y-55000000D01*
X55353553Y-55000000D01*
X57503556Y-57150003D01*
X57630968Y-57000004D01*
X57732674Y-56850000D01*
X60050000Y-56850000D01*
X60050000Y-56930007D01*
X60064816Y-57094620D01*
X60123476Y-57307173D01*
X60219147Y-57505838D01*
X60348761Y-57684233D01*
X60508137Y-57836614D01*
X60692164Y-57958088D01*
X60894923Y-58044753D01*
X61024999Y-58074442D01*
X61025000Y-58074442D01*
X61025000Y-56850000D01*
X61525000Y-56850000D01*
X61525000Y-58077322D01*
X61548689Y-58074114D01*
X61758401Y-58005973D01*
X61952576Y-57901482D01*
X62124973Y-57764001D01*
X62270051Y-57597946D01*
X62383148Y-57408655D01*
X62460627Y-57202212D01*
X62500000Y-56985253D01*
X62500000Y-56850000D01*
X61525000Y-56850000D01*
X61025000Y-56850000D01*
X60050000Y-56850000D01*
X57732674Y-56850000D01*
X57831781Y-56703829D01*
X57999398Y-56387670D01*
X58014407Y-56350000D01*
X60050000Y-56350000D01*
X61025000Y-56350000D01*
X61525000Y-56350000D01*
X62051415Y-56350000D01*
X62113415Y-56366612D01*
X62131716Y-56377179D01*
X62170666Y-56389834D01*
X62182778Y-56394483D01*
X62220197Y-56411144D01*
X62260267Y-56419660D01*
X62272782Y-56423014D01*
X62311744Y-56435674D01*
X62352485Y-56439955D01*
X62365294Y-56441985D01*
X62405354Y-56450500D01*
X62452808Y-56450500D01*
X62594643Y-56450500D01*
X62594646Y-56450500D01*
X62634726Y-56441980D01*
X62647503Y-56439956D01*
X62688256Y-56435674D01*
X62727220Y-56423012D01*
X62739741Y-56419658D01*
X62765860Y-56414107D01*
X62779799Y-56411145D01*
X62779799Y-56411144D01*
X62779803Y-56411144D01*
X62817234Y-56394477D01*
X62829324Y-56389836D01*
X62868284Y-56377179D01*
X62903757Y-56356698D01*
X62915307Y-56350811D01*
X62952730Y-56334151D01*
X62985872Y-56310071D01*
X62996734Y-56303018D01*
X63032216Y-56282533D01*
X63062654Y-56255125D01*
X63072740Y-56246958D01*
X63072741Y-56246957D01*
X63105871Y-56222888D01*
X63133284Y-56192441D01*
X63142441Y-56183284D01*
X63172888Y-56155871D01*
X63196958Y-56122739D01*
X63205125Y-56112654D01*
X63232533Y-56082216D01*
X63253018Y-56046734D01*
X63260071Y-56035872D01*
X63284151Y-56002730D01*
X63300811Y-55965307D01*
X63306700Y-55953753D01*
X63327179Y-55918284D01*
X63331209Y-55905879D01*
X63339836Y-55879324D01*
X63344477Y-55867234D01*
X63361144Y-55829803D01*
X63369658Y-55789741D01*
X63373012Y-55777220D01*
X63385674Y-55738256D01*
X63389956Y-55697503D01*
X63391980Y-55684726D01*
X63400500Y-55644646D01*
X63400500Y-55603692D01*
X63401179Y-55590731D01*
X63401414Y-55588492D01*
X63405460Y-55550000D01*
X63401178Y-55509267D01*
X63400500Y-55496308D01*
X63400500Y-55455354D01*
X63391986Y-55415300D01*
X63389955Y-55402480D01*
X63385674Y-55361744D01*
X63373014Y-55322782D01*
X63369660Y-55310267D01*
X63361144Y-55270197D01*
X63344483Y-55232778D01*
X63339831Y-55220658D01*
X63331178Y-55194026D01*
X63327179Y-55181716D01*
X63306696Y-55146239D01*
X63300805Y-55134677D01*
X63284151Y-55097270D01*
X63260078Y-55064136D01*
X63253015Y-55053260D01*
X63232531Y-55017781D01*
X63205127Y-54987347D01*
X63196957Y-54977258D01*
X63172889Y-54944130D01*
X63172887Y-54944128D01*
X63142442Y-54916715D01*
X63133274Y-54907546D01*
X63105871Y-54877112D01*
X63096785Y-54870511D01*
X63084164Y-54861341D01*
X63072739Y-54853041D01*
X63062662Y-54844881D01*
X63032216Y-54817467D01*
X63032215Y-54817466D01*
X62996740Y-54796984D01*
X62985860Y-54789918D01*
X62952732Y-54765850D01*
X62952728Y-54765848D01*
X62915308Y-54749187D01*
X62903755Y-54743300D01*
X62868284Y-54722821D01*
X62829331Y-54710164D01*
X62817213Y-54705512D01*
X62779805Y-54688856D01*
X62758011Y-54684224D01*
X62739739Y-54680340D01*
X62727209Y-54676982D01*
X62688255Y-54664325D01*
X62647519Y-54660043D01*
X62634706Y-54658014D01*
X62594646Y-54649500D01*
X62405354Y-54649500D01*
X62405351Y-54649500D01*
X62365292Y-54658013D01*
X62352483Y-54660042D01*
X62311744Y-54664325D01*
X62272794Y-54676981D01*
X62260258Y-54680340D01*
X62220198Y-54688854D01*
X62182780Y-54705514D01*
X62170668Y-54710163D01*
X62131715Y-54722820D01*
X62096241Y-54743301D01*
X62084681Y-54749191D01*
X62047270Y-54765848D01*
X62014137Y-54789919D01*
X62003260Y-54796983D01*
X61967782Y-54817467D01*
X61937347Y-54844871D01*
X61927264Y-54853036D01*
X61894128Y-54877111D01*
X61866722Y-54907548D01*
X61857548Y-54916722D01*
X61827111Y-54944128D01*
X61803036Y-54977264D01*
X61794871Y-54987347D01*
X61767467Y-55017782D01*
X61746983Y-55053260D01*
X61739918Y-55064138D01*
X61719186Y-55092675D01*
X61684053Y-55125276D01*
X61639181Y-55142118D01*
X61591274Y-55140684D01*
X61525000Y-55125557D01*
X61525000Y-56350000D01*
X61025000Y-56350000D01*
X61025000Y-55122678D01*
X61024999Y-55122677D01*
X61001310Y-55125885D01*
X60791598Y-55194026D01*
X60597423Y-55298517D01*
X60425026Y-55435998D01*
X60279948Y-55602053D01*
X60166851Y-55791344D01*
X60089372Y-55997787D01*
X60050000Y-56214747D01*
X60050000Y-56350000D01*
X58014407Y-56350000D01*
X58131850Y-56055241D01*
X58227580Y-55710451D01*
X58285474Y-55357310D01*
X58304847Y-54999999D01*
X58285474Y-54642689D01*
X58227580Y-54289548D01*
X58131850Y-53944758D01*
X57999398Y-53612329D01*
X57831781Y-53296170D01*
X57664872Y-53050000D01*
X60050000Y-53050000D01*
X60050000Y-53176206D01*
X60064625Y-53329373D01*
X60122464Y-53526353D01*
X60216540Y-53708836D01*
X60343445Y-53870207D01*
X60498603Y-54004653D01*
X60676395Y-54107301D01*
X60870407Y-54174450D01*
X60875000Y-54175111D01*
X60875000Y-53050000D01*
X61375000Y-53050000D01*
X61375000Y-54170531D01*
X61478201Y-54145495D01*
X61664944Y-54060213D01*
X61832175Y-53941127D01*
X61973853Y-53792540D01*
X62084842Y-53619837D01*
X62161147Y-53429237D01*
X62200000Y-53227650D01*
X62200000Y-53050000D01*
X67800000Y-53050000D01*
X67800000Y-53176206D01*
X67814625Y-53329373D01*
X67872464Y-53526353D01*
X67966540Y-53708836D01*
X68093445Y-53870207D01*
X68248603Y-54004653D01*
X68426395Y-54107301D01*
X68620407Y-54174450D01*
X68625000Y-54175111D01*
X68625000Y-53050000D01*
X69125000Y-53050000D01*
X69125000Y-54170531D01*
X69228201Y-54145495D01*
X69414944Y-54060213D01*
X69582175Y-53941127D01*
X69723853Y-53792540D01*
X69834842Y-53619837D01*
X69911147Y-53429237D01*
X69950000Y-53227650D01*
X69950000Y-53050000D01*
X69125000Y-53050000D01*
X68625000Y-53050000D01*
X67800000Y-53050000D01*
X62200000Y-53050000D01*
X61375000Y-53050000D01*
X60875000Y-53050000D01*
X60050000Y-53050000D01*
X57664872Y-53050000D01*
X57630968Y-52999995D01*
X57503557Y-52849995D01*
X57503556Y-52849994D01*
X55353553Y-55000000D01*
X54646447Y-55000000D01*
X52496442Y-52849994D01*
X52496441Y-52849995D01*
X52369030Y-52999995D01*
X52168218Y-53296170D01*
X52000601Y-53612329D01*
X51868149Y-53944758D01*
X51772419Y-54289548D01*
X51714525Y-54642689D01*
X51695152Y-54999999D01*
X51300500Y-54999999D01*
X51300500Y-52493703D01*
X52847255Y-52493703D01*
X55000000Y-54646447D01*
X55000001Y-54646447D01*
X57152743Y-52493703D01*
X57152742Y-52493702D01*
X57139514Y-52481171D01*
X56854636Y-52264613D01*
X56548015Y-52080126D01*
X56223253Y-51929875D01*
X55884140Y-51815614D01*
X55534664Y-51738689D01*
X55178922Y-51700000D01*
X54821078Y-51700000D01*
X54465335Y-51738689D01*
X54115859Y-51815614D01*
X53776746Y-51929875D01*
X53451984Y-52080126D01*
X53145363Y-52264613D01*
X52860486Y-52481170D01*
X52847256Y-52493702D01*
X52847255Y-52493703D01*
X51300500Y-52493703D01*
X51300500Y-51424500D01*
X51317113Y-51362500D01*
X51362500Y-51317113D01*
X51424500Y-51300500D01*
X60539003Y-51300500D01*
X60603036Y-51318313D01*
G37*
%TD.AperFunction*%
%TD*%
M02*
