M48
; DRILL file {KiCad 7.0.1} date Sun 14 May 2023 08:32:15 PM CEST
; FORMAT={-:-/ absolute / inch / decimal}
; #@! TF.CreationDate,2023-05-14T20:32:15+02:00
; #@! TF.GenerationSoftware,Kicad,Pcbnew,7.0.1
; #@! TF.FileFunction,Plated,1,2,PTH
FMAT,2
INCH
; #@! TA.AperFunction,Plated,PTH,ViaDrill
T1C0.0118
; #@! TA.AperFunction,Plated,PTH,ComponentDrill
T2C0.0217
; #@! TA.AperFunction,Plated,PTH,ComponentDrill
T3C0.0335
; #@! TA.AperFunction,Plated,PTH,ComponentDrill
T4C0.0394
; #@! TA.AperFunction,Plated,PTH,ComponentDrill
T5C0.0551
; #@! TA.AperFunction,Plated,PTH,ComponentDrill
T6C0.1260
%
G90
G05
T1
X2.2047Y-2.7657
X2.2047Y-2.8346
X2.2343Y-2.7362
X2.2343Y-2.8642
X2.2343Y-3.0413
X2.2343Y-3.1102
X2.2736Y-3.002
X2.2736Y-3.1496
X2.3524Y-2.6575
X2.3819Y-3.2185
X2.4016Y-2.6083
X2.4606Y-2.6575
X2.4803Y-2.3031
X2.4803Y-2.3524
X2.4902Y-3.2185
X2.5157Y-2.1732
X2.5295Y-2.3031
X2.5945Y-2.3031
X2.5984Y-2.1752
X2.7953Y-3.1102
X2.7953Y-3.1791
X2.7953Y-3.3071
X2.815Y-2.8248
X2.8248Y-2.6693
X2.8248Y-2.7264
X2.8346Y-3.1398
X2.8346Y-3.2087
X2.8346Y-3.2776
X2.8543Y-2.7854
X3.0118Y-3.1201
X3.0807Y-2.687
X3.0807Y-2.7854
X3.1201Y-3.1201
T4
X2.9419Y-2.1703
X2.9528Y-3.3465
X3.0419Y-2.1703
X3.0528Y-3.3465
T5
X3.435Y-2.3622
X3.435Y-2.5591
X3.435Y-2.7559
X3.435Y-2.9528
X3.435Y-3.1496
T6
X2.1654Y-2.1654
X2.1654Y-3.3465
X3.3465Y-2.1654
X3.3465Y-3.3465
T2
G00X2.4065Y-2.0915
M15
G01X2.4065Y-2.0659
M16
G05
G00X2.7116Y-2.0915
M15
G01X2.7116Y-2.0659
M16
G05
T3
G00X2.4124Y-2.2392
M15
G01X2.4124Y-2.2175
M16
G05
G00X2.7057Y-2.2392
M15
G01X2.7057Y-2.2175
M16
G05
T0
M30
