%TF.GenerationSoftware,KiCad,Pcbnew,7.0.1*%
%TF.CreationDate,2023-05-14T20:32:12+02:00*%
%TF.ProjectId,adr4520_vref,61647234-3532-4305-9f76-7265662e6b69,rev?*%
%TF.SameCoordinates,Original*%
%TF.FileFunction,Copper,L1,Top*%
%TF.FilePolarity,Positive*%
%FSLAX46Y46*%
G04 Gerber Fmt 4.6, Leading zero omitted, Abs format (unit mm)*
G04 Created by KiCad (PCBNEW 7.0.1) date 2023-05-14 20:32:12*
%MOMM*%
%LPD*%
G01*
G04 APERTURE LIST*
G04 Aperture macros list*
%AMRoundRect*
0 Rectangle with rounded corners*
0 $1 Rounding radius*
0 $2 $3 $4 $5 $6 $7 $8 $9 X,Y pos of 4 corners*
0 Add a 4 corners polygon primitive as box body*
4,1,4,$2,$3,$4,$5,$6,$7,$8,$9,$2,$3,0*
0 Add four circle primitives for the rounded corners*
1,1,$1+$1,$2,$3*
1,1,$1+$1,$4,$5*
1,1,$1+$1,$6,$7*
1,1,$1+$1,$8,$9*
0 Add four rect primitives between the rounded corners*
20,1,$1+$1,$2,$3,$4,$5,0*
20,1,$1+$1,$4,$5,$6,$7,0*
20,1,$1+$1,$6,$7,$8,$9,0*
20,1,$1+$1,$8,$9,$2,$3,0*%
G04 Aperture macros list end*
%TA.AperFunction,ComponentPad*%
%ADD10R,1.700000X1.700000*%
%TD*%
%TA.AperFunction,ComponentPad*%
%ADD11O,1.700000X1.700000*%
%TD*%
%TA.AperFunction,ComponentPad*%
%ADD12C,5.600000*%
%TD*%
%TA.AperFunction,SMDPad,CuDef*%
%ADD13RoundRect,0.237500X-0.300000X-0.237500X0.300000X-0.237500X0.300000X0.237500X-0.300000X0.237500X0*%
%TD*%
%TA.AperFunction,SMDPad,CuDef*%
%ADD14RoundRect,0.237500X0.300000X0.237500X-0.300000X0.237500X-0.300000X-0.237500X0.300000X-0.237500X0*%
%TD*%
%TA.AperFunction,ComponentPad*%
%ADD15C,2.800000*%
%TD*%
%TA.AperFunction,SMDPad,CuDef*%
%ADD16RoundRect,0.237500X0.287500X0.237500X-0.287500X0.237500X-0.287500X-0.237500X0.287500X-0.237500X0*%
%TD*%
%TA.AperFunction,SMDPad,CuDef*%
%ADD17RoundRect,0.237500X-0.237500X0.250000X-0.237500X-0.250000X0.237500X-0.250000X0.237500X0.250000X0*%
%TD*%
%TA.AperFunction,SMDPad,CuDef*%
%ADD18RoundRect,0.150000X-0.825000X-0.150000X0.825000X-0.150000X0.825000X0.150000X-0.825000X0.150000X0*%
%TD*%
%TA.AperFunction,SMDPad,CuDef*%
%ADD19RoundRect,0.250000X-1.050000X-0.550000X1.050000X-0.550000X1.050000X0.550000X-1.050000X0.550000X0*%
%TD*%
%TA.AperFunction,SMDPad,CuDef*%
%ADD20R,0.450000X1.300000*%
%TD*%
%TA.AperFunction,ComponentPad*%
%ADD21O,1.150000X1.800000*%
%TD*%
%TA.AperFunction,ComponentPad*%
%ADD22O,1.450000X2.000000*%
%TD*%
%TA.AperFunction,SMDPad,CuDef*%
%ADD23RoundRect,0.237500X0.237500X-0.287500X0.237500X0.287500X-0.237500X0.287500X-0.237500X-0.287500X0*%
%TD*%
%TA.AperFunction,SMDPad,CuDef*%
%ADD24R,2.000000X1.500000*%
%TD*%
%TA.AperFunction,SMDPad,CuDef*%
%ADD25R,2.000000X3.800000*%
%TD*%
%TA.AperFunction,ViaPad*%
%ADD26C,0.700000*%
%TD*%
%TA.AperFunction,Conductor*%
%ADD27C,0.400000*%
%TD*%
%TA.AperFunction,Conductor*%
%ADD28C,0.750000*%
%TD*%
%TA.AperFunction,Conductor*%
%ADD29C,0.200000*%
%TD*%
G04 APERTURE END LIST*
D10*
%TO.P,J2,1,Pin_1*%
%TO.N,/2V048*%
X77540000Y-85000000D03*
D11*
%TO.P,J2,2,Pin_2*%
%TO.N,GND*%
X75000000Y-85000000D03*
%TD*%
D10*
%TO.P,J3,1,Pin_1*%
%TO.N,VBUS*%
X74725000Y-55125000D03*
D11*
%TO.P,J3,2,Pin_2*%
%TO.N,GND*%
X77265000Y-55125000D03*
%TD*%
D12*
%TO.P,H3,1,1*%
%TO.N,GND*%
X55000000Y-85000000D03*
%TD*%
D13*
%TO.P,C8,1*%
%TO.N,GND*%
X56887500Y-72000000D03*
%TO.P,C8,2*%
%TO.N,+5V*%
X58612500Y-72000000D03*
%TD*%
%TO.P,C2,1*%
%TO.N,GND*%
X57775000Y-77250000D03*
%TO.P,C2,2*%
%TO.N,+3V3*%
X59500000Y-77250000D03*
%TD*%
D14*
%TO.P,C10,1*%
%TO.N,GND*%
X71612500Y-70750000D03*
%TO.P,C10,2*%
%TO.N,+3V3*%
X69887500Y-70750000D03*
%TD*%
D15*
%TO.P,TP3,1,1*%
%TO.N,VBUS*%
X87250000Y-60000000D03*
%TD*%
%TO.P,TP5,1,1*%
%TO.N,+3V3*%
X87250000Y-70000000D03*
%TD*%
D14*
%TO.P,C9,1*%
%TO.N,GND*%
X71612500Y-68500000D03*
%TO.P,C9,2*%
%TO.N,+3V3*%
X69887500Y-68500000D03*
%TD*%
D16*
%TO.P,L1,1*%
%TO.N,VBUS*%
X65875000Y-61750000D03*
%TO.P,L1,2*%
%TO.N,+5V*%
X64125000Y-61750000D03*
%TD*%
D17*
%TO.P,R1,1*%
%TO.N,+3V3*%
X76500000Y-73000000D03*
%TO.P,R1,2*%
%TO.N,Net-(D1-A)*%
X76500000Y-74825000D03*
%TD*%
D13*
%TO.P,C6,1*%
%TO.N,/2V048*%
X69250000Y-83250000D03*
%TO.P,C6,2*%
%TO.N,GND*%
X70975000Y-83250000D03*
%TD*%
%TO.P,C3,1*%
%TO.N,GND*%
X57775000Y-79000000D03*
%TO.P,C3,2*%
%TO.N,+3V3*%
X59500000Y-79000000D03*
%TD*%
D18*
%TO.P,U1,1,NC*%
%TO.N,unconnected-(U1-NC-Pad1)*%
X61887500Y-77845000D03*
%TO.P,U1,2,IN*%
%TO.N,+3V3*%
X61887500Y-79115000D03*
%TO.P,U1,3,NC*%
%TO.N,unconnected-(U1-NC-Pad3)*%
X61887500Y-80385000D03*
%TO.P,U1,4,GND*%
%TO.N,GND*%
X61887500Y-81655000D03*
%TO.P,U1,5,NC*%
%TO.N,unconnected-(U1-NC-Pad5)*%
X66837500Y-81655000D03*
%TO.P,U1,6,OUT*%
%TO.N,/2V048*%
X66837500Y-80385000D03*
%TO.P,U1,7,NC*%
%TO.N,unconnected-(U1-NC-Pad7)*%
X66837500Y-79115000D03*
%TO.P,U1,8,NC*%
%TO.N,unconnected-(U1-NC-Pad8)*%
X66837500Y-77845000D03*
%TD*%
D13*
%TO.P,C5,1*%
%TO.N,/2V048*%
X69250000Y-81500000D03*
%TO.P,C5,2*%
%TO.N,GND*%
X70975000Y-81500000D03*
%TD*%
D19*
%TO.P,C11,1*%
%TO.N,+3V3*%
X74700000Y-69500000D03*
%TO.P,C11,2*%
%TO.N,GND*%
X78300000Y-69500000D03*
%TD*%
D12*
%TO.P,H2,1,1*%
%TO.N,GND*%
X85000000Y-55000000D03*
%TD*%
D20*
%TO.P,J1,1,VBUS*%
%TO.N,VBUS*%
X66300000Y-56650000D03*
%TO.P,J1,2,D-*%
%TO.N,unconnected-(J1-D--Pad2)*%
X65650000Y-56650000D03*
%TO.P,J1,3,D+*%
%TO.N,unconnected-(J1-D+-Pad3)*%
X65000000Y-56650000D03*
%TO.P,J1,4,ID*%
%TO.N,unconnected-(J1-ID-Pad4)*%
X64350000Y-56650000D03*
%TO.P,J1,5,GND*%
%TO.N,GND*%
X63700000Y-56650000D03*
D21*
%TO.P,J1,6,Shield*%
X68875000Y-52800000D03*
D22*
X68725000Y-56600000D03*
X61275000Y-56600000D03*
D21*
X61125000Y-52800000D03*
%TD*%
D15*
%TO.P,TP2,1,1*%
%TO.N,GND*%
X87250000Y-75000000D03*
%TD*%
%TO.P,TP1,1,1*%
%TO.N,/2V048*%
X87250000Y-80000000D03*
%TD*%
%TO.P,TP4,1,1*%
%TO.N,GND*%
X87250000Y-65000000D03*
%TD*%
D13*
%TO.P,C4,1*%
%TO.N,/2V048*%
X69250000Y-79750000D03*
%TO.P,C4,2*%
%TO.N,GND*%
X70975000Y-79750000D03*
%TD*%
D23*
%TO.P,D1,1,K*%
%TO.N,GND*%
X76500000Y-78250000D03*
%TO.P,D1,2,A*%
%TO.N,Net-(D1-A)*%
X76500000Y-76500000D03*
%TD*%
D13*
%TO.P,C7,1*%
%TO.N,GND*%
X56887500Y-70250000D03*
%TO.P,C7,2*%
%TO.N,+5V*%
X58612500Y-70250000D03*
%TD*%
D24*
%TO.P,U2,1,GND*%
%TO.N,GND*%
X61100000Y-67450000D03*
%TO.P,U2,2,VO*%
%TO.N,+3V3*%
X61100000Y-69750000D03*
D25*
X67400000Y-69750000D03*
D24*
%TO.P,U2,3,VI*%
%TO.N,+5V*%
X61100000Y-72050000D03*
%TD*%
D23*
%TO.P,D2,1,K*%
%TO.N,GND*%
X79250000Y-78250000D03*
%TO.P,D2,2,A*%
%TO.N,Net-(D2-A)*%
X79250000Y-76500000D03*
%TD*%
D12*
%TO.P,H1,1,1*%
%TO.N,GND*%
X55000000Y-55000000D03*
%TD*%
D13*
%TO.P,C1,1*%
%TO.N,GND*%
X64137500Y-59750000D03*
%TO.P,C1,2*%
%TO.N,VBUS*%
X65862500Y-59750000D03*
%TD*%
D12*
%TO.P,H4,1,1*%
%TO.N,GND*%
X85000000Y-85000000D03*
%TD*%
D17*
%TO.P,R2,1*%
%TO.N,/2V048*%
X79250000Y-73000000D03*
%TO.P,R2,2*%
%TO.N,Net-(D2-A)*%
X79250000Y-74825000D03*
%TD*%
D26*
%TO.N,GND*%
X72000000Y-83250000D03*
X79250000Y-79250000D03*
X56750000Y-79000000D03*
X63000000Y-59750000D03*
X61000000Y-66250000D03*
X71000000Y-80750000D03*
X57750000Y-76250000D03*
X63900000Y-55200000D03*
X71750000Y-69250000D03*
X56750000Y-69500000D03*
X60500000Y-81750000D03*
X78250000Y-70750000D03*
X71000000Y-79000000D03*
X63000000Y-58500000D03*
X63250000Y-81750000D03*
X56750000Y-77250000D03*
X71000000Y-84000000D03*
X56000000Y-72000000D03*
X76500000Y-79250000D03*
X59750000Y-67500000D03*
X62500000Y-67500000D03*
X56750000Y-72750000D03*
X71500000Y-71750000D03*
X72500000Y-70750000D03*
X71750000Y-67799500D03*
X56000000Y-70250000D03*
X72000000Y-81500000D03*
X78250000Y-68250000D03*
X57750000Y-80000000D03*
X64250000Y-58500000D03*
X72000000Y-79750000D03*
%TO.N,VBUS*%
X66000000Y-55250000D03*
X65900000Y-58500000D03*
%TD*%
D27*
%TO.N,GND*%
X57775000Y-76275000D02*
X57750000Y-76250000D01*
X61100000Y-67450000D02*
X59800000Y-67450000D01*
X63700000Y-56650000D02*
X63700000Y-55400000D01*
X70975000Y-79750000D02*
X72000000Y-79750000D01*
X56887500Y-72000000D02*
X56000000Y-72000000D01*
X56887500Y-70250000D02*
X56887500Y-69637500D01*
X64250000Y-58500000D02*
X64250000Y-58350000D01*
X60595000Y-81655000D02*
X60500000Y-81750000D01*
X63700000Y-56650000D02*
X63700000Y-57800000D01*
X61100000Y-66350000D02*
X61000000Y-66250000D01*
X70975000Y-83250000D02*
X70975000Y-83975000D01*
X71612500Y-68500000D02*
X71612500Y-69112500D01*
X61100000Y-67450000D02*
X61100000Y-66350000D01*
X71612500Y-68500000D02*
X71612500Y-67937000D01*
X70975000Y-83250000D02*
X72000000Y-83250000D01*
X63700000Y-57800000D02*
X63000000Y-58500000D01*
X57775000Y-77250000D02*
X56750000Y-77250000D01*
X57775000Y-77250000D02*
X57775000Y-76275000D01*
X71612500Y-69112500D02*
X71750000Y-69250000D01*
X78300000Y-69500000D02*
X78300000Y-68300000D01*
X61887500Y-81655000D02*
X60595000Y-81655000D01*
X56887500Y-70250000D02*
X56000000Y-70250000D01*
X78300000Y-68300000D02*
X78250000Y-68250000D01*
X63250000Y-81750000D02*
X63155000Y-81655000D01*
X79250000Y-78250000D02*
X79250000Y-79250000D01*
X71612500Y-67937000D02*
X71750000Y-67799500D01*
X71612500Y-70750000D02*
X71612500Y-71637500D01*
X62450000Y-67450000D02*
X62500000Y-67500000D01*
X70975000Y-83975000D02*
X71000000Y-84000000D01*
X63700000Y-55400000D02*
X63900000Y-55200000D01*
X76500000Y-78250000D02*
X76500000Y-79250000D01*
X70975000Y-81500000D02*
X70975000Y-80775000D01*
X59800000Y-67450000D02*
X59750000Y-67500000D01*
X70975000Y-80775000D02*
X71000000Y-80750000D01*
X71612500Y-70750000D02*
X72500000Y-70750000D01*
X56887500Y-69637500D02*
X56750000Y-69500000D01*
X56887500Y-72000000D02*
X56887500Y-72612500D01*
X70975000Y-79750000D02*
X70975000Y-79025000D01*
X78300000Y-70700000D02*
X78250000Y-70750000D01*
X57775000Y-79000000D02*
X57775000Y-79975000D01*
X70975000Y-79025000D02*
X71000000Y-79000000D01*
X78300000Y-69500000D02*
X78300000Y-70700000D01*
X57775000Y-79000000D02*
X56750000Y-79000000D01*
X70975000Y-81500000D02*
X72000000Y-81500000D01*
X56887500Y-72612500D02*
X56750000Y-72750000D01*
X71612500Y-71637500D02*
X71500000Y-71750000D01*
X63000000Y-59750000D02*
X64137500Y-59750000D01*
X61100000Y-67450000D02*
X62450000Y-67450000D01*
X57775000Y-79975000D02*
X57750000Y-80000000D01*
X63155000Y-81655000D02*
X61887500Y-81655000D01*
X64250000Y-58350000D02*
X63700000Y-57800000D01*
%TO.N,VBUS*%
X66300000Y-55550000D02*
X66000000Y-55250000D01*
D28*
X65875000Y-59762500D02*
X65862500Y-59750000D01*
D27*
X65862500Y-59750000D02*
X65862500Y-58387500D01*
D28*
X74000000Y-59750000D02*
X74725000Y-59025000D01*
X65862500Y-59750000D02*
X74000000Y-59750000D01*
D27*
X66300000Y-57950000D02*
X65862500Y-58387500D01*
X66300000Y-56650000D02*
X66300000Y-57950000D01*
X66300000Y-56650000D02*
X66300000Y-55550000D01*
D28*
X75700000Y-60000000D02*
X74725000Y-59025000D01*
X65875000Y-61750000D02*
X65875000Y-59762500D01*
X87250000Y-60000000D02*
X75700000Y-60000000D01*
X74725000Y-59025000D02*
X74725000Y-55125000D01*
%TO.N,+3V3*%
X69887500Y-70750000D02*
X69887500Y-68500000D01*
X71600000Y-74400000D02*
X73200000Y-72800000D01*
X59500000Y-77250000D02*
X59500000Y-75900000D01*
X68400000Y-70750000D02*
X67400000Y-69750000D01*
X73400000Y-73000000D02*
X73200000Y-72800000D01*
X61000000Y-74400000D02*
X71600000Y-74400000D01*
X74700000Y-71300000D02*
X74700000Y-69500000D01*
X73200000Y-72800000D02*
X74700000Y-71300000D01*
X75400000Y-66750000D02*
X74700000Y-67450000D01*
X74700000Y-69500000D02*
X74700000Y-67450000D01*
D27*
X61887500Y-79115000D02*
X59615000Y-79115000D01*
D28*
X74000000Y-66750000D02*
X70500000Y-66750000D01*
X69887500Y-67362500D02*
X69887500Y-68500000D01*
X61100000Y-69750000D02*
X67400000Y-69750000D01*
X85250000Y-70000000D02*
X82000000Y-66750000D01*
X74700000Y-67450000D02*
X74000000Y-66750000D01*
X76500000Y-73000000D02*
X73400000Y-73000000D01*
X82000000Y-66750000D02*
X75400000Y-66750000D01*
X59500000Y-75900000D02*
X61000000Y-74400000D01*
X59500000Y-79000000D02*
X59500000Y-77250000D01*
X69887500Y-70750000D02*
X68400000Y-70750000D01*
X87250000Y-70000000D02*
X85250000Y-70000000D01*
X70500000Y-66750000D02*
X69887500Y-67362500D01*
%TO.N,+5V*%
X64125000Y-61750000D02*
X59750000Y-61750000D01*
X59750000Y-61750000D02*
X58612500Y-62887500D01*
X58612500Y-70250000D02*
X58612500Y-72000000D01*
X58662500Y-72050000D02*
X58612500Y-72000000D01*
X61100000Y-72050000D02*
X58662500Y-72050000D01*
X58612500Y-62887500D02*
X58612500Y-70250000D01*
D27*
%TO.N,/2V048*%
X76500000Y-86750000D02*
X70000000Y-86750000D01*
D29*
X78000000Y-73250000D02*
X78000000Y-80750000D01*
D27*
X69250000Y-83250000D02*
X69250000Y-86000000D01*
D29*
X78250000Y-73000000D02*
X78000000Y-73250000D01*
D27*
X78750000Y-80000000D02*
X87250000Y-80000000D01*
X68500000Y-79750000D02*
X69250000Y-79750000D01*
X66837500Y-80385000D02*
X67865000Y-80385000D01*
X69250000Y-86000000D02*
X70000000Y-86750000D01*
X67865000Y-80385000D02*
X68500000Y-79750000D01*
X69250000Y-79750000D02*
X69250000Y-81500000D01*
X77540000Y-85000000D02*
X77540000Y-85710000D01*
X69250000Y-81500000D02*
X69250000Y-83250000D01*
X77540000Y-85710000D02*
X76500000Y-86750000D01*
X77540000Y-81210000D02*
X78000000Y-80750000D01*
D29*
X79250000Y-73000000D02*
X78250000Y-73000000D01*
D27*
X78000000Y-80750000D02*
X78750000Y-80000000D01*
X77540000Y-85000000D02*
X77540000Y-81210000D01*
D29*
%TO.N,Net-(D1-A)*%
X76500000Y-74825000D02*
X76500000Y-76500000D01*
%TO.N,Net-(D2-A)*%
X79250000Y-74825000D02*
X79250000Y-76500000D01*
%TD*%
M02*
