%TF.GenerationSoftware,KiCad,Pcbnew,7.0.1*%
%TF.CreationDate,2023-05-14T20:32:12+02:00*%
%TF.ProjectId,adr4520_vref,61647234-3532-4305-9f76-7265662e6b69,rev?*%
%TF.SameCoordinates,Original*%
%TF.FileFunction,Paste,Top*%
%TF.FilePolarity,Positive*%
%FSLAX46Y46*%
G04 Gerber Fmt 4.6, Leading zero omitted, Abs format (unit mm)*
G04 Created by KiCad (PCBNEW 7.0.1) date 2023-05-14 20:32:12*
%MOMM*%
%LPD*%
G01*
G04 APERTURE LIST*
G04 Aperture macros list*
%AMRoundRect*
0 Rectangle with rounded corners*
0 $1 Rounding radius*
0 $2 $3 $4 $5 $6 $7 $8 $9 X,Y pos of 4 corners*
0 Add a 4 corners polygon primitive as box body*
4,1,4,$2,$3,$4,$5,$6,$7,$8,$9,$2,$3,0*
0 Add four circle primitives for the rounded corners*
1,1,$1+$1,$2,$3*
1,1,$1+$1,$4,$5*
1,1,$1+$1,$6,$7*
1,1,$1+$1,$8,$9*
0 Add four rect primitives between the rounded corners*
20,1,$1+$1,$2,$3,$4,$5,0*
20,1,$1+$1,$4,$5,$6,$7,0*
20,1,$1+$1,$6,$7,$8,$9,0*
20,1,$1+$1,$8,$9,$2,$3,0*%
G04 Aperture macros list end*
%ADD10RoundRect,0.237500X-0.300000X-0.237500X0.300000X-0.237500X0.300000X0.237500X-0.300000X0.237500X0*%
%ADD11RoundRect,0.237500X0.300000X0.237500X-0.300000X0.237500X-0.300000X-0.237500X0.300000X-0.237500X0*%
%ADD12RoundRect,0.237500X0.287500X0.237500X-0.287500X0.237500X-0.287500X-0.237500X0.287500X-0.237500X0*%
%ADD13RoundRect,0.237500X-0.237500X0.250000X-0.237500X-0.250000X0.237500X-0.250000X0.237500X0.250000X0*%
%ADD14RoundRect,0.150000X-0.825000X-0.150000X0.825000X-0.150000X0.825000X0.150000X-0.825000X0.150000X0*%
%ADD15RoundRect,0.250000X-1.050000X-0.550000X1.050000X-0.550000X1.050000X0.550000X-1.050000X0.550000X0*%
%ADD16R,0.450000X1.300000*%
%ADD17RoundRect,0.237500X0.237500X-0.287500X0.237500X0.287500X-0.237500X0.287500X-0.237500X-0.287500X0*%
%ADD18R,2.000000X1.500000*%
%ADD19R,2.000000X3.800000*%
G04 APERTURE END LIST*
D10*
%TO.C,C8*%
X56887500Y-72000000D03*
X58612500Y-72000000D03*
%TD*%
%TO.C,C2*%
X57775000Y-77250000D03*
X59500000Y-77250000D03*
%TD*%
D11*
%TO.C,C10*%
X71612500Y-70750000D03*
X69887500Y-70750000D03*
%TD*%
%TO.C,C9*%
X71612500Y-68500000D03*
X69887500Y-68500000D03*
%TD*%
D12*
%TO.C,L1*%
X65875000Y-61750000D03*
X64125000Y-61750000D03*
%TD*%
D13*
%TO.C,R1*%
X76500000Y-73000000D03*
X76500000Y-74825000D03*
%TD*%
D10*
%TO.C,C6*%
X69250000Y-83250000D03*
X70975000Y-83250000D03*
%TD*%
%TO.C,C3*%
X57775000Y-79000000D03*
X59500000Y-79000000D03*
%TD*%
D14*
%TO.C,U1*%
X61887500Y-77845000D03*
X61887500Y-79115000D03*
X61887500Y-80385000D03*
X61887500Y-81655000D03*
X66837500Y-81655000D03*
X66837500Y-80385000D03*
X66837500Y-79115000D03*
X66837500Y-77845000D03*
%TD*%
D10*
%TO.C,C5*%
X69250000Y-81500000D03*
X70975000Y-81500000D03*
%TD*%
D15*
%TO.C,C11*%
X74700000Y-69500000D03*
X78300000Y-69500000D03*
%TD*%
D16*
%TO.C,J1*%
X66300000Y-56650000D03*
X65650000Y-56650000D03*
X65000000Y-56650000D03*
X64350000Y-56650000D03*
X63700000Y-56650000D03*
%TD*%
D10*
%TO.C,C4*%
X69250000Y-79750000D03*
X70975000Y-79750000D03*
%TD*%
D17*
%TO.C,D1*%
X76500000Y-78250000D03*
X76500000Y-76500000D03*
%TD*%
D10*
%TO.C,C7*%
X56887500Y-70250000D03*
X58612500Y-70250000D03*
%TD*%
D18*
%TO.C,U2*%
X61100000Y-67450000D03*
X61100000Y-69750000D03*
D19*
X67400000Y-69750000D03*
D18*
X61100000Y-72050000D03*
%TD*%
D17*
%TO.C,D2*%
X79250000Y-78250000D03*
X79250000Y-76500000D03*
%TD*%
D10*
%TO.C,C1*%
X64137500Y-59750000D03*
X65862500Y-59750000D03*
%TD*%
D13*
%TO.C,R2*%
X79250000Y-73000000D03*
X79250000Y-74825000D03*
%TD*%
M02*
